<svg xmlns="http://www.w3.org/2000/svg" viewBox="0 0 80 80" width="80" height="80">
	<style>
		tspan { white-space:pre }
		.shp0 { fill: none } 
		.shp1 { fill: #ffffff } 
	</style>
	<g id="Web 1920 – 12">
		<g id="add_task-24px (1)">
			<path id="Rectangle 172" class="shp0" d="M0 0L79 0L79 79L0 79L0 0Z" />
			<path id="Path 332" fill-rule="evenodd" class="shp1" d="M71.46 16.83L34.4 53.92L20.62 40.15L25.2 35.57L34.4 44.76L66.88 12.28L71.46 16.83ZM49.63 62.62L54.5 67.5C49.89 70.03 44.6 71.46 38.98 71.46C21.05 71.46 6.5 56.91 6.5 38.98C6.5 21.05 21.05 6.5 38.98 6.5C45.9 6.5 52.29 8.67 57.59 12.34L52.88 17.05C48.85 14.49 44.08 12.99 38.98 12.99C24.65 12.99 12.99 24.65 12.99 38.98C12.99 53.3 24.65 64.96 38.98 64.96C42.78 64.96 46.38 64.12 49.63 62.62ZM61.71 38.98L68.21 38.98L68.21 48.72L77.95 48.72L77.95 55.22L68.21 55.22L68.21 64.96L61.71 64.96L61.71 55.22L51.97 55.22L51.97 48.72L61.71 48.72L61.71 38.98Z" />
		</g>
	</g>
</svg>