<svg xmlns="http://www.w3.org/2000/svg" viewBox="0 0 82 80" width="82" height="80">
	<style>
		tspan { white-space:pre }
		.shp0 { fill: none } 
		.shp1 { fill: #ffffff } 
	</style>
	<g id="Web 1920 – 11">
		<g id="Group 354">
			<g id="add_circle_outline-24px">
				<path id="Path 330" class="shp0" d="M1.81 0L80.19 0L80.19 78.37L1.81 78.37L1.81 0Z" />
				<path id="Path 331" fill-rule="evenodd" class="shp1" d="M73.66 39.19C73.66 57.21 59.03 71.84 41 71.84C22.97 71.84 8.34 57.21 8.34 39.19C8.34 21.16 22.97 6.53 41 6.53C59.03 6.53 73.66 21.16 73.66 39.19ZM67.12 39.19C67.12 24.79 55.4 13.06 41 13.06C26.6 13.06 14.87 24.79 14.87 39.19C14.87 53.59 26.6 65.31 41 65.31C55.4 65.31 67.12 53.59 67.12 39.19ZM44.26 35.92L57.33 35.92L57.33 42.45L44.26 42.45L44.26 55.52L37.73 55.52L37.73 42.45L24.67 42.45L24.67 35.92L37.73 35.92L37.73 22.86L44.26 22.86L44.26 35.92Z" />
			</g>
		</g>
	</g>
</svg>