<svg xmlns="http://www.w3.org/2000/svg" viewBox="0 0 16 18" width="16" height="18">
	<style>
		tspan { white-space:pre }
		.shp0 { fill: #ffffff } 
	</style>
	<g id="Web 1920 – 3">
		<g id="Group 387">
			<path id="Path 339" class="shp0" d="M12.87 9C12.85 6.98 14.52 6 14.6 5.96C13.66 4.58 12.19 4.39 11.67 4.37C10.42 4.24 9.24 5.1 8.6 5.1C7.98 5.1 7 4.39 5.97 4.41C4.61 4.43 3.35 5.2 2.65 6.41C1.24 8.86 2.29 12.49 3.67 14.47C4.34 15.44 5.14 16.54 6.19 16.5C7.21 16.46 7.59 15.84 8.82 15.84C10.04 15.84 10.39 16.5 11.46 16.48C12.55 16.46 13.24 15.49 13.91 14.51C14.68 13.39 14.99 12.29 15.01 12.24C14.99 12.23 12.89 11.42 12.87 9L12.87 9L12.87 9Z" />
			<path id="Path 340" class="shp0" d="M10.85 3.06C11.41 2.38 11.79 1.44 11.69 0.5C10.88 0.53 9.9 1.04 9.33 1.71C8.81 2.31 8.36 3.27 8.48 4.19C9.38 4.26 10.29 3.73 10.85 3.06L10.85 3.06Z" />
		</g>
	</g>
</svg>