<svg xmlns="http://www.w3.org/2000/svg" viewBox="0 0 32 32" width="32" height="32">
	<defs>
		<linearGradient id="grd1" gradientUnits="userSpaceOnUse"  x1="32.399" y1="17.6" x2="2.541" y2="18">
			<stop offset="0" stop-color="#7985f3"  />
			<stop offset="1" stop-color="#7967f3"  />
		</linearGradient>
	</defs>
	<style>
		tspan { white-space:pre }
		.shp0 { fill: none } 
		.shp1 { fill: url(#grd1) } 
	</style>
	<g id="Web 1920 – 7">
		<g id="credit_score-24px">
			<g id="Group 329">
				<path id="Path 319" class="shp0" d="M0 0L30.5 0L30.5 30.5L0 30.5L0 0Z" />
			</g>
			<g id="Group 330">
				<path id="Path 320" fill-rule="evenodd" class="shp1" d="M27.96 7.62L27.96 15.25L5.08 15.25L5.08 22.87L10.17 22.87C10.86 22.87 11.44 23.45 11.44 24.15C11.44 24.84 10.86 25.42 10.17 25.42L5.08 25.42C3.67 25.42 2.54 24.29 2.54 22.87L2.55 7.62C2.55 6.21 3.67 5.08 5.08 5.08L25.42 5.08C26.81 5.08 27.96 6.23 27.96 7.62ZM25.42 7.62L5.08 7.62L5.08 10.17L25.42 10.17L25.42 7.62ZM25.28 18.07C25.77 17.58 26.57 17.58 27.07 18.07C27.56 18.57 27.56 19.37 27.07 19.86L19.88 27.06C19.38 27.55 18.58 27.55 18.08 27.06L14.49 23.46C13.99 22.96 13.99 22.16 14.49 21.67C14.98 21.17 15.78 21.17 16.28 21.67L18.97 24.36L25.28 18.07Z" />
			</g>
		</g>
	</g>
</svg>