<svg xmlns="http://www.w3.org/2000/svg" viewBox="0 0 22 18" width="22" height="18">
	<style>
		tspan { white-space:pre }
		.shp0 { fill: #ffffff } 
	</style>
	<g id="Web 1920 – 3">
		<g id="Group 383">
			<path id="Path 341" fill-rule="evenodd" class="shp0" d="M20.03 14.04C20.03 15.54 18.81 16.75 17.32 16.75L4.68 16.75C3.18 16.75 1.97 15.54 1.97 14.04L1.97 3.21C1.97 1.71 3.18 0.5 4.68 0.5L17.32 0.5C18.81 0.5 20.03 1.71 20.03 3.21L20.03 14.04ZM18.22 3.21C18.22 2.71 17.82 2.31 17.32 2.31L4.68 2.31C4.18 2.31 3.78 2.71 3.78 3.21L3.78 14.04C3.78 14.54 4.18 14.94 4.68 14.94L17.32 14.94C17.82 14.94 18.22 14.54 18.22 14.04L18.22 3.21ZM4.68 4.34C4.68 3.71 5.19 3.21 5.81 3.21C6.43 3.21 6.94 3.71 6.94 4.34C6.94 4.96 6.43 5.47 5.81 5.47C5.19 5.47 4.68 4.96 4.68 4.34ZM10.55 4.34C10.55 4.96 10.04 5.47 9.42 5.47C8.8 5.47 8.29 4.96 8.29 4.34C8.29 3.71 8.8 3.21 9.42 3.21C10.04 3.21 10.55 3.71 10.55 4.34ZM8.03 7.99L9.83 9.79C10.18 10.14 10.18 10.72 9.83 11.07L8.03 12.87C7.67 13.23 7.1 13.23 6.75 12.87C6.4 12.52 6.4 11.95 6.75 11.6L7.92 10.43L6.75 9.26C6.4 8.91 6.4 8.34 6.75 7.99C7.1 7.63 7.67 7.63 8.03 7.99ZM14.61 11.33C15.11 11.33 15.51 11.74 15.51 12.24C15.51 12.73 15.11 13.14 14.61 13.14L11.9 13.14C11.4 13.14 11 12.73 11 12.24C11 11.74 11.4 11.33 11.9 11.33L14.61 11.33Z" />
		</g>
	</g>
</svg>