<svg xmlns="http://www.w3.org/2000/svg" viewBox="0 0 14 14" width="14" height="14">
	<style>
		tspan { white-space:pre }
		.shp0 { fill: none } 
		.shp1 { fill: #ffffff } 
	</style>
	<g id="Web 1920 – 7">
		<g id="Group 339">
			<g id="create-24px">
				<g id="Group 331">
					<path id="Rectangle 147" class="shp0" d="M0 0L14 0L14 14L0 14L0 0Z" />
				</g>
				<g id="Group 335">
					<g id="Group 334">
						<g id="Group 332">
							<path id="Path 326" class="shp1" d="M1.75 10.18L1.75 11.96C1.75 12.12 1.88 12.25 2.04 12.25L3.81 12.25C3.89 12.25 3.97 12.22 4.02 12.16L10.39 5.8L8.2 3.61L1.84 9.97C1.78 10.03 1.75 10.1 1.75 10.18Z" />
						</g>
						<g id="Group 333">
							<path id="Path 327" class="shp1" d="M12.08 3.28L10.72 1.92C10.49 1.69 10.12 1.69 9.89 1.92L8.83 2.99L11.01 5.17L12.08 4.11C12.31 3.88 12.31 3.51 12.08 3.28Z" />
						</g>
					</g>
				</g>
			</g>
		</g>
	</g>
</svg>