<svg xmlns="http://www.w3.org/2000/svg" viewBox="0 0 388 484" width="388" height="484">
	<defs>
		<linearGradient id="grd1" gradientUnits="userSpaceOnUse"  x1="283.349" y1="183.078" x2="348.897" y2="220.64">
			<stop offset="0" stop-color="#7984f3"  />
			<stop offset="0.174" stop-color="#797ff3"  />
			<stop offset="0.463" stop-color="#7975f3"  />
			<stop offset="0.829" stop-color="#796ef3"  />
			<stop offset="1" stop-color="#7967f3"  />
		</linearGradient>
		<linearGradient id="grd2" gradientUnits="userSpaceOnUse"  x1="112.824" y1="167.697" x2="449.102" y2="167.697">
			<stop offset="0" stop-color="#7979f3"  />
			<stop offset="0.205" stop-color="#797ff3"  />
			<stop offset="0.596" stop-color="#969ff1"  />
			<stop offset="1" stop-color="#a9b0f9"  />
		</linearGradient>
		<linearGradient id="grd3" gradientUnits="userSpaceOnUse"  x1="351.198" y1="147.489" x2="124.351" y2="182.842">
			<stop offset="0" stop-color="#7979f3"  />
			<stop offset="0.205" stop-color="#797ff3"  />
			<stop offset="0.596" stop-color="#969ff1"  />
			<stop offset="1" stop-color="#a9b0f9"  />
		</linearGradient>
	</defs>
	<style>
		tspan { white-space:pre }
		.shp0 { fill: #dbe4ec } 
		.shp1 { fill: #7789a0 } 
		.shp2 { fill: #ffffff } 
		.shp3 { fill: url(#grd1) } 
		.shp4 { fill: url(#grd2) } 
		.shp5 { fill: url(#grd3) } 
		.shp6 { fill: #8aa2bb } 
		.shp7 { fill: #111314 } 
		.shp8 { fill: #b6c7d9 } 
	</style>
	<g id="Web 1920 – 2">
		<g id="Group 239">
			<g id="Group 223">
				<g id="Group 207">
					<path id="Path 290" class="shp0" d="M277.16 302.9L221.34 270.19C224.41 271.92 226.21 275.86 226.18 280.81C226.15 284.05 223.85 288.08 220.97 289.65L190.42 307.15C188.89 308.01 187.59 310.22 187.59 312.05C187.59 312.9 187.9 313.57 188.42 313.85L244.19 346.53C243.72 346.26 243.38 345.6 243.38 344.75C243.38 342.95 244.67 340.76 246.21 339.89L276.78 322.35C279.68 320.76 281.92 316.78 281.92 313.52C281.95 308.51 280.22 304.64 277.16 302.9Z" />
				</g>
				<g id="Group 209">
					<g id="Group 208">
						<path id="Path 291" class="shp0" d="M241.72 273.36L185.87 240.63L181.92 247.54L237.68 280.22L241.72 273.36Z" />
					</g>
				</g>
				<g id="Group 211">
					<g id="Group 210">
						<path id="Path 292" class="shp0" d="M281.13 296.03L225.32 263.33L185.87 240.63L241.72 273.36L281.13 296.03Z" />
					</g>
				</g>
				<g id="Group 213">
					<g id="Group 212">
						<path id="Path 293" class="shp1" d="M241.72 273.37L237.68 280.22L277.16 302.9C280.22 304.64 281.95 308.51 281.92 313.52C281.92 316.78 279.68 320.76 276.78 322.35L246.21 339.89C244.67 340.76 243.38 342.95 243.38 344.75C243.41 346.53 244.67 347.26 246.21 346.38L276.78 328.85C282.73 325.45 287.6 317.11 287.62 310.26C287.62 303.59 285.28 298.39 281.13 296.03L241.72 273.37Z" />
					</g>
				</g>
				<g id="Group 214">
					<path id="Path 294" class="shp0" d="M122.6 0.68L116.98 3.94C118.95 2.78 121.59 2.97 124.56 4.68L130.11 1.48C127.19 -0.25 124.56 -0.39 122.6 0.68Z" />
				</g>
				<g id="Group 215">
					<path id="Path 295" class="shp1" d="M385.46 348.13L385.51 328.84L379.91 332.13L379.85 351.34L379.85 351.29C379.85 354.63 378.65 356.99 376.76 358.1L382.37 354.84C384.27 353.75 385.47 351.42 385.47 348.11L385.46 348.13Z" />
				</g>
				<g id="Group 217">
					<g id="Group 216">
						<path id="Path 296" class="shp2" d="M379.85 332.14L112.83 176.6L112.74 195.77C112.65 202.47 117.39 210.64 123.19 214.02L217.94 269.2L275.21 302.55L369.25 357.33C375.06 360.7 379.85 358.03 379.85 351.29L379.85 332.14Z" />
					</g>
				</g>
				<g id="Group 219">
					<g id="Group 218">
						<path id="Path 297" class="shp0" d="M368.58 310.26L374.17 307.02L375.21 155.52L369.63 158.73L368.58 310.26Z" />
					</g>
				</g>
				<g id="Group 221">
					<g id="Group 220">
						<path id="Path 298" class="shp0" d="M369.63 158.73L375.21 155.52L132 13.82L126.41 17.04L369.63 158.73Z" />
					</g>
				</g>
				<g id="Group 222">
					<path id="Path 299" class="shp3" d="M386.56 163.03C386.59 156.79 382.15 148.27 376.07 144.71L130.11 1.48C127.19 -0.25 124.56 -0.39 122.6 0.68L116.98 3.94C118.95 2.78 121.59 2.97 124.56 4.68L370.46 147.93C376 151.2 381 159.46 380.95 166.23L379.98 316.98L379.85 332.17L385.51 328.85L385.57 313.72L386.56 163.03Z" />
				</g>
				<path id="Path 300" class="shp4" d="M370.46 147.93C376.31 151.4 381 159.54 380.95 166.23L379.98 316.98L379.98 319.63L379.91 332.17L112.83 176.6C112.83 174.24 112.68 192.31 113.9 10.68C113.97 3.98 118.75 1.31 124.56 4.68L370.46 147.93Z" />
				<path id="Path 301" class="shp5" d="M125.38 168.53L368.58 310.26L369.63 158.73L126.41 17.04L125.38 168.53L125.38 168.53Z" />
			</g>
			<g id="Group 232">
				<g id="Group 224">
					<path id="Path 302" class="shp0" d="M276.72 407.54L86.77 303.96C85.62 303.26 84.89 301.82 84.89 299.83C84.89 298.76 85.09 297.58 85.42 296.49L275.46 400.11C275.08 401.24 274.86 402.42 274.86 403.46C274.86 405.45 275.59 406.87 276.72 407.54L276.72 407.54Z" />
				</g>
				<g id="Group 225">
					<path id="Path 303" class="shp0" d="M95.91 288.31C93.98 287.27 91.78 288.31 90.08 289.59L90.08 289.59L1.43 345.02L190.33 450.81L280.12 393.2L280.12 393.2L280.39 392.94L280.39 392.94C282.9 391.24 284.71 391.33 285.81 391.97L95.91 288.31Z" />
				</g>
				<g id="Group 226">
					<path id="Path 304" class="shp6" d="M0.72 345.73C0.91 345.5 1.08 345.26 1.39 345.06L190.26 450.92C189.98 451.05 189.82 451.32 189.64 451.56C189.11 452.24 188.84 453.02 188.87 453.7C188.99 454.11 189.11 454.32 189.32 454.48L0.44 348.65C0.22 348.53 0.01 348.23 0.01 347.85C-0.06 347.26 0.24 346.41 0.72 345.73Z" />
				</g>
				<g id="Group 227">
					<path id="Path 305" class="shp0" d="M190.27 450.92L1.39 345.06L1.43 345.02L190.33 450.81L190.27 450.92L190.27 450.92Z" />
				</g>
				<g id="Group 228">
					<path id="Path 306" class="shp6" d="M281.31 392.45C284.79 390.39 287.67 392.04 287.67 396.12C287.67 400.18 284.79 405.14 281.26 407.1C277.74 409.23 274.86 407.53 274.86 403.46C274.86 402.42 275.08 401.24 275.46 400.11L274.04 401.03L190.65 454.35C189.68 454.95 188.99 454.62 188.87 453.7C188.81 452.69 189.46 451.45 190.33 450.81L280.39 392.94C280.39 392.94 280.63 392.83 280.69 392.79L281.02 392.65C281.02 392.65 281.2 392.52 281.31 392.45Z" />
				</g>
				<g id="Group 229">
					<path id="Path 307" class="shp7" d="M203.89 361.64C205.35 362.49 205.74 365.23 204.11 366.84L153.15 399.39C148.83 402.04 145.15 399.65 141.18 397.36L42.53 344.14C39.47 342.36 40.37 339.62 42.53 338.38L91.89 305.69C94.67 304.07 97.9 303.4 99.94 304.56L203.89 361.64Z" />
				</g>
				<g id="Group 230">
					<path id="Path 308" class="shp7" d="M246.67 384.79C248.12 385.63 248.52 388.38 246.89 389.98L195.93 422.54C191.62 425.18 187.94 422.79 183.96 420.51L161.22 408.49C158.15 406.7 159.05 403.96 161.22 402.71L210.58 370.03C213.36 368.42 216.58 367.74 218.62 368.9L246.67 384.79Z" />
				</g>
				<g id="Group 231">
					<path id="Path 309" class="shp7" d="M128.88 397.64C129.77 398.16 130.02 399.85 129.01 400.84L126.65 401.76C124 403.38 121.74 401.91 119.3 400.51L42.39 358.58C40.51 357.49 41.06 355.81 42.39 355.04L43.77 354.05C45.48 353.05 47.46 352.64 48.72 353.35L128.88 397.64Z" />
				</g>
			</g>
			<g id="Group 238">
				<g id="Group 233">
					<path id="Path 310" class="shp0" d="M247.15 446.42C257.51 440.48 267.13 439.17 272.54 439.29L296.4 453.29C291.01 453.18 281.45 454.54 271.08 460.41C263.36 464.89 256.1 471.3 250.36 477.28C247.6 480.1 243.28 480.82 239.87 478.85L229.2 472.59C226.17 470.79 224.64 465.7 227.07 463.17C232.77 457.23 239.46 450.83 247.15 446.42Z" />
				</g>
				<g id="Group 234">
					<path id="Path 311" class="shp1" d="M271.08 460.41C261.08 466.12 251.87 475.29 245.74 482.3L246.28 482.47C247.54 482.96 250.31 481.66 252.76 480.16C254.05 479.51 255.28 478.7 256.13 478.24L286.02 461.14C286.89 460.63 288.12 459.97 289.41 459.27C291.87 457.86 294.63 456.03 295.94 454.06L296.4 453.29C291.01 453.18 281.45 454.54 271.08 460.41Z" />
				</g>
				<g id="Group 235">
					<path id="Path 312" class="shp8" d="M296.2 449.92C298.23 451.14 297.78 453.73 296.01 454.39C295.07 454.81 290.91 455.6 289.43 455.95C284.44 457.3 278.86 459.77 274.29 462.4C267.59 466.27 258.79 473.16 252.94 479.78C251.55 481.33 249.61 482.52 247.11 482.8C242.97 483.22 240.8 482.8 236.64 480.1L229.05 475.33C224.84 472.86 223.41 467 227.07 462.64C226.62 462.17 232.95 475.7 233.89 476.24C238.99 479.3 241.07 480.79 244.54 480.77C247.84 480.82 250.86 479.35 252.32 477.77C259.05 470.56 266.48 464.49 274.29 460.01C280.78 456.3 287.02 454.1 292.74 453.04C294.16 452.78 296.23 452.56 296.53 451.67C296.79 450.79 296.2 449.92 296.2 449.92Z" />
				</g>
				<g id="Group 237">
					<g id="Group 236">
						<path id="Path 313" class="shp2" d="M228.29 461.3C234.64 454.7 241.55 449.17 248.8 445.02C256.23 440.79 263.47 438.39 270.02 437.75C273.45 437.33 276.79 438.49 279.69 440.26L296.2 449.92C297.5 450.67 296.95 452.56 295.54 452.73C294.37 452.78 293.17 453 292.02 453.19C286.44 454.24 280.5 456.44 274.29 460.01C267.59 463.83 261.28 468.77 255.34 474.61C254.75 475.21 253.97 476.01 253.13 476.96C249.51 480.97 243.61 482 238.99 479.3L238.17 478.8L229.39 473.63C225.23 471.19 224.33 465.55 227.61 462.01C227.86 461.73 228.07 461.5 228.29 461.3Z" />
					</g>
				</g>
			</g>
		</g>
	</g>
</svg>