<svg xmlns="http://www.w3.org/2000/svg" viewBox="0 0 28 22" width="28" height="22">
	<style>
		tspan { white-space:pre }
		.shp0 { fill: #7984f3 } 
	</style>
	<g id="Web 1920 – 1">
		<g id="Group 381">
			<g id="discord group forum message">
				<path id="Path 333" fill-rule="evenodd" class="shp0" d="M11.65 9.99C13.35 10.11 14.63 11.56 14.54 13.26C14.63 14.95 13.34 16.41 11.65 16.52C9.95 16.41 8.66 14.96 8.75 13.26C8.66 11.56 9.95 10.1 11.65 9.99ZM11.65 11.99C11.16 11.99 10.75 12.58 10.75 13.26C10.75 13.94 11.17 14.52 11.65 14.52C12.13 14.52 12.54 13.94 12.54 13.26C12.54 12.57 12.14 11.99 11.65 11.99ZM18.21 9.99C19.91 10.1 21.2 11.56 21.11 13.26C21.2 14.96 19.91 16.41 18.21 16.52C16.52 16.41 15.23 14.95 15.32 13.26C15.23 11.56 16.52 10.11 18.21 9.99ZM19.11 13.26C19.11 12.57 18.69 11.99 18.21 11.99C17.73 11.99 17.32 12.58 17.32 13.26C17.32 13.94 17.73 14.52 18.21 14.52C18.7 14.52 19.11 13.95 19.11 13.26Z" />
				<path id="Path 334" class="shp0" d="M25.56 6.38L25.49 6.29C25.49 6.29 25.49 6.22 25.49 6.19C23.75 4.08 21.36 2.62 18.69 2.04C18.34 1.94 17.96 2.04 17.7 2.3C17.44 2.56 17.35 2.94 17.46 3.29C17.56 3.64 17.85 3.9 18.21 3.98C20.42 4.45 22.4 5.64 23.86 7.37C25.21 10.46 25.91 13.8 25.93 17.18C24.54 18.48 22.8 19.35 20.93 19.7L20.93 19.27C20.93 19.27 20.93 19.22 20.93 19.19C22.16 18.71 23.32 18.05 24.36 17.24C24.79 16.89 24.87 16.26 24.52 15.83C24.18 15.4 23.54 15.32 23.11 15.67C20.76 17.45 17.88 18.37 14.93 18.27C12.01 18.35 9.15 17.43 6.82 15.67C6.39 15.32 5.76 15.4 5.41 15.83C5.07 16.26 5.14 16.89 5.57 17.24C6.6 18.05 7.75 18.71 8.98 19.19L8.98 19.7C7.11 19.35 5.37 18.48 3.98 17.18C4 13.8 4.72 10.46 6.07 7.37C7.53 5.64 9.52 4.45 11.72 3.98C12.24 3.83 12.54 3.3 12.41 2.78C12.29 2.26 11.77 1.93 11.24 2.04C8.57 2.62 6.18 4.08 4.44 6.19C4.44 6.19 4.44 6.26 4.44 6.29L4.37 6.38C2.43 10.38 2.21 14.03 2 17.52C1.98 17.81 2.09 18.09 2.29 18.29C4.32 20.36 7.04 21.63 9.93 21.85L9.93 21.85C10.19 21.85 10.44 21.74 10.63 21.56C10.82 21.37 10.93 21.12 10.93 20.85L10.93 19.85C13.56 20.46 16.3 20.46 18.93 19.85L18.93 20.85C18.93 21.12 19.04 21.37 19.23 21.56C19.42 21.74 19.67 21.85 19.93 21.85L19.93 21.85C22.85 21.66 25.61 20.41 27.67 18.34C27.87 18.14 27.98 17.86 27.96 17.57C27.72 14.03 27.5 10.42 25.56 6.38Z" />
				<path id="Path 335" class="shp0" d="M22.42 7.57C22.54 7.33 22.57 7.06 22.49 6.8C22.41 6.55 22.23 6.34 21.99 6.22C19.79 5.17 17.37 4.66 14.93 4.72C12.49 4.66 10.07 5.17 7.87 6.22C7.64 6.34 7.46 6.55 7.38 6.8C7.3 7.06 7.32 7.33 7.44 7.57C7.7 8.06 8.3 8.25 8.79 7.99C10.71 7.09 12.81 6.66 14.93 6.72C17.05 6.66 19.15 7.09 21.07 7.99C21.21 8.07 21.37 8.11 21.53 8.11C21.91 8.11 22.25 7.9 22.42 7.57L22.42 7.57Z" />
			</g>
		</g>
	</g>
</svg>