<svg xmlns="http://www.w3.org/2000/svg" viewBox="0 0 1176 1012" width="1176" height="1012">
	<defs>
		<linearGradient id="grd1" gradientUnits="userSpaceOnUse"  x1="614.575" y1="-48.829" x2="569.153" y2="1033.294">
			<stop offset="0" stop-color="#7969f3"  />
			<stop offset="1" stop-color="#7985f3"  />
		</linearGradient>
		<linearGradient id="grd2" gradientUnits="userSpaceOnUse"  x1="990.131" y1="1022.515" x2="295.597" y2="63.702">
			<stop offset="0" stop-color="#000000"  />
			<stop offset="0.055" stop-color="#202020"  />
			<stop offset="0.156" stop-color="#545454"  />
			<stop offset="0.261" stop-color="#818181"  />
			<stop offset="0.369" stop-color="#a8a8a8"  />
			<stop offset="0.48" stop-color="#c8c8c8"  />
			<stop offset="0.594" stop-color="#e0e0e0"  />
			<stop offset="0.715" stop-color="#f1f1f1"  />
			<stop offset="0.844" stop-color="#fcfcfc"  />
			<stop offset="1" stop-color="#ffffff"  />
		</linearGradient>
		<linearGradient id="grd3" gradientUnits="userSpaceOnUse"  x1="343.032" y1="447.475" x2="1014.872" y2="564.038">
			<stop offset="0" stop-color="#000000"  />
			<stop offset="0.216" stop-color="#3a3a3a"  />
			<stop offset="0.761" stop-color="#c6c6c6"  />
			<stop offset="1" stop-color="#ffffff"  />
		</linearGradient>
		<linearGradient id="grd4" gradientUnits="userSpaceOnUse"  x1="1017.952" y1="962.439" x2="781.58" y2="566.09">
			<stop offset="0" stop-color="#000000"  />
			<stop offset="0.089" stop-color="#1d1d1d"  />
			<stop offset="0.346" stop-color="#6c6c6c"  />
			<stop offset="0.575" stop-color="#ababab"  />
			<stop offset="0.767" stop-color="#d9d9d9"  />
			<stop offset="0.915" stop-color="#f5f5f5"  />
			<stop offset="1" stop-color="#ffffff"  />
		</linearGradient>
		<linearGradient id="grd5" gradientUnits="userSpaceOnUse"  x1="650.97" y1="-54.542" x2="1616.142" y2="778.846">
			<stop offset="0" stop-color="#7984f3"  />
			<stop offset="0.174" stop-color="#797ff3"  />
			<stop offset="0.463" stop-color="#7975f3"  />
			<stop offset="0.829" stop-color="#796ef3"  />
			<stop offset="1" stop-color="#7967f3"  />
		</linearGradient>
		<linearGradient id="grd6" gradientUnits="userSpaceOnUse"  x1="1241.207" y1="843.802" x2="757.697" y2="224.806">
			<stop offset="0" stop-color="#7977f3"  />
			<stop offset="0.104" stop-color="#797bf3"  />
			<stop offset="0.277" stop-color="#797cf3"  />
			<stop offset="0.453" stop-color="#797ef3"  />
			<stop offset="0.63" stop-color="#7980f3"  />
			<stop offset="0.811" stop-color="#7982f3"  />
			<stop offset="1" stop-color="#b9bde6"  />
		</linearGradient>
		<linearGradient id="grd7" gradientUnits="userSpaceOnUse"  x1="712.616" y1="206.762" x2="718.282" y2="299.466">
			<stop offset="0" stop-color="#7969f3"  />
			<stop offset="1" stop-color="#7985f3"  />
		</linearGradient>
		<linearGradient id="grd8" gradientUnits="userSpaceOnUse"  x1="730.457" y1="205.676" x2="736.115" y2="298.378">
			<stop offset="0" stop-color="#7969f3"  />
			<stop offset="1" stop-color="#7985f3"  />
		</linearGradient>
		<linearGradient id="grd9" gradientUnits="userSpaceOnUse"  x1="748.289" y1="204.589" x2="753.954" y2="297.29">
			<stop offset="0" stop-color="#7969f3"  />
			<stop offset="1" stop-color="#7985f3"  />
		</linearGradient>
		<linearGradient id="grd10" gradientUnits="userSpaceOnUse"  x1="949.756" y1="488.488" x2="948.339" y2="533.78">
			<stop offset="0" stop-color="#7984f3"  />
			<stop offset="0.174" stop-color="#797ff3"  />
			<stop offset="0.463" stop-color="#7975f3"  />
			<stop offset="0.829" stop-color="#796ef3"  />
			<stop offset="1" stop-color="#7967f3"  />
		</linearGradient>
		<linearGradient id="grd11" gradientUnits="userSpaceOnUse"  x1="950.475" y1="458.369" x2="949.059" y2="493.049">
			<stop offset="0" stop-color="#7984f3"  />
			<stop offset="0.174" stop-color="#797ff3"  />
			<stop offset="0.463" stop-color="#7975f3"  />
			<stop offset="0.829" stop-color="#796ef3"  />
			<stop offset="1" stop-color="#7967f3"  />
		</linearGradient>
		<linearGradient id="grd12" gradientUnits="userSpaceOnUse"  x1="910.455" y1="549.067" x2="992.649" y2="549.067">
			<stop offset="0" stop-color="#7979f3"  />
			<stop offset="0.205" stop-color="#797ff3"  />
			<stop offset="0.596" stop-color="#969ff1"  />
			<stop offset="1" stop-color="#a9b0f9"  />
		</linearGradient>
		<linearGradient id="grd13" gradientUnits="userSpaceOnUse"  x1="988.868" y1="570.547" x2="906.409" y2="523.128">
			<stop offset="0" stop-color="#7979f3"  />
			<stop offset="0.205" stop-color="#797ff3"  />
			<stop offset="0.596" stop-color="#969ff1"  />
			<stop offset="1" stop-color="#a9b0f9"  />
		</linearGradient>
		<linearGradient id="grd14" gradientUnits="userSpaceOnUse"  x1="910.455" y1="567.995" x2="992.649" y2="567.995">
			<stop offset="0" stop-color="#7979f3"  />
			<stop offset="0.205" stop-color="#797ff3"  />
			<stop offset="0.596" stop-color="#969ff1"  />
			<stop offset="1" stop-color="#a9b0f9"  />
		</linearGradient>
		<linearGradient id="grd15" gradientUnits="userSpaceOnUse"  x1="980.677" y1="584.779" x2="898.226" y2="537.361">
			<stop offset="0" stop-color="#7979f3"  />
			<stop offset="0.205" stop-color="#797ff3"  />
			<stop offset="0.596" stop-color="#969ff1"  />
			<stop offset="1" stop-color="#a9b0f9"  />
		</linearGradient>
		<linearGradient id="grd16" gradientUnits="userSpaceOnUse"  x1="910.455" y1="586.937" x2="992.649" y2="586.937">
			<stop offset="0" stop-color="#7979f3"  />
			<stop offset="0.205" stop-color="#797ff3"  />
			<stop offset="0.596" stop-color="#969ff1"  />
			<stop offset="1" stop-color="#a9b0f9"  />
		</linearGradient>
		<linearGradient id="grd17" gradientUnits="userSpaceOnUse"  x1="972.5" y1="599.005" x2="890.043" y2="551.594">
			<stop offset="0" stop-color="#7979f3"  />
			<stop offset="0.205" stop-color="#797ff3"  />
			<stop offset="0.596" stop-color="#969ff1"  />
			<stop offset="1" stop-color="#a9b0f9"  />
		</linearGradient>
		<linearGradient id="grd18" gradientUnits="userSpaceOnUse"  x1="989.629" y1="431.971" x2="991.045" y2="524.916">
			<stop offset="0" stop-color="#7984f3"  />
			<stop offset="0.174" stop-color="#797ff3"  />
			<stop offset="0.463" stop-color="#7975f3"  />
			<stop offset="0.829" stop-color="#796ef3"  />
			<stop offset="1" stop-color="#7967f3"  />
		</linearGradient>
		<linearGradient id="grd19" gradientUnits="userSpaceOnUse"  x1="729.487" y1="884.928" x2="51.996" y2="347.832">
			<stop offset="0" stop-color="#7979f3"  />
			<stop offset="0.205" stop-color="#797ff3"  />
			<stop offset="0.596" stop-color="#969ff1"  />
			<stop offset="1" stop-color="#a9b0f9"  />
		</linearGradient>
		<linearGradient id="grd20" gradientUnits="userSpaceOnUse"  x1="196.427" y1="654.144" x2="172.834" y2="478.788">
			<stop offset="0" stop-color="#7979f3"  />
			<stop offset="0.205" stop-color="#797ff3"  />
			<stop offset="0.596" stop-color="#969ff1"  />
			<stop offset="1" stop-color="#a9b0f9"  />
		</linearGradient>
		<linearGradient id="grd21" gradientUnits="userSpaceOnUse"  x1="250.503" y1="569.236" x2="227.042" y2="393.728">
			<stop offset="0" stop-color="#7979f3"  />
			<stop offset="0.205" stop-color="#797ff3"  />
			<stop offset="0.596" stop-color="#969ff1"  />
			<stop offset="1" stop-color="#a9b0f9"  />
		</linearGradient>
		<linearGradient id="grd22" gradientUnits="userSpaceOnUse"  x1="287.488" y1="597.842" x2="264.028" y2="422.463">
			<stop offset="0" stop-color="#7979f3"  />
			<stop offset="0.205" stop-color="#797ff3"  />
			<stop offset="0.596" stop-color="#969ff1"  />
			<stop offset="1" stop-color="#a9b0f9"  />
		</linearGradient>
		<linearGradient id="grd23" gradientUnits="userSpaceOnUse"  x1="346.436" y1="493.24" x2="322.844" y2="317.719">
			<stop offset="0" stop-color="#7979f3"  />
			<stop offset="0.205" stop-color="#797ff3"  />
			<stop offset="0.596" stop-color="#969ff1"  />
			<stop offset="1" stop-color="#a9b0f9"  />
		</linearGradient>
		<linearGradient id="grd24" gradientUnits="userSpaceOnUse"  x1="378.701" y1="516.795" x2="355.108" y2="341.275">
			<stop offset="0" stop-color="#7979f3"  />
			<stop offset="0.205" stop-color="#797ff3"  />
			<stop offset="0.596" stop-color="#969ff1"  />
			<stop offset="1" stop-color="#a9b0f9"  />
		</linearGradient>
		<linearGradient id="grd25" gradientUnits="userSpaceOnUse"  x1="418.53" y1="467.235" x2="394.939" y2="291.879">
			<stop offset="0" stop-color="#7979f3"  />
			<stop offset="0.205" stop-color="#797ff3"  />
			<stop offset="0.596" stop-color="#969ff1"  />
			<stop offset="1" stop-color="#a9b0f9"  />
		</linearGradient>
		<linearGradient id="grd26" gradientUnits="userSpaceOnUse"  x1="460.043" y1="508.619" x2="436.451" y2="333.099">
			<stop offset="0" stop-color="#7979f3"  />
			<stop offset="0.205" stop-color="#797ff3"  />
			<stop offset="0.596" stop-color="#969ff1"  />
			<stop offset="1" stop-color="#a9b0f9"  />
		</linearGradient>
		<linearGradient id="grd27" gradientUnits="userSpaceOnUse"  x1="515.455" y1="465.321" x2="491.863" y2="289.964">
			<stop offset="0" stop-color="#7979f3"  />
			<stop offset="0.205" stop-color="#797ff3"  />
			<stop offset="0.596" stop-color="#969ff1"  />
			<stop offset="1" stop-color="#a9b0f9"  />
		</linearGradient>
		<linearGradient id="grd28" gradientUnits="userSpaceOnUse"  x1="492.566" y1="432.238" x2="468.974" y2="256.716">
			<stop offset="0" stop-color="#7979f3"  />
			<stop offset="0.205" stop-color="#797ff3"  />
			<stop offset="0.596" stop-color="#969ff1"  />
			<stop offset="1" stop-color="#a9b0f9"  />
		</linearGradient>
		<linearGradient id="grd29" gradientUnits="userSpaceOnUse"  x1="680.797" y1="665.899" x2="647.31" y2="1069.809">
			<stop offset="0" stop-color="#7984f3"  />
			<stop offset="0.174" stop-color="#797ff3"  />
			<stop offset="0.463" stop-color="#7975f3"  />
			<stop offset="0.829" stop-color="#796ef3"  />
			<stop offset="1" stop-color="#7967f3"  />
		</linearGradient>
		<linearGradient id="grd30" gradientUnits="userSpaceOnUse"  x1="660.917" y1="694.363" x2="357.168" y2="674.184">
			<stop offset="0" stop-color="#7984f3"  />
			<stop offset="0.174" stop-color="#797ff3"  />
			<stop offset="0.463" stop-color="#7975f3"  />
			<stop offset="0.829" stop-color="#796ef3"  />
			<stop offset="1" stop-color="#7967f3"  />
		</linearGradient>
		<linearGradient id="grd31" gradientUnits="userSpaceOnUse"  x1="725.219" y1="651.708" x2="264.019" y2="621.083">
			<stop offset="0" stop-color="#7984f3"  />
			<stop offset="0.174" stop-color="#797ff3"  />
			<stop offset="0.463" stop-color="#7975f3"  />
			<stop offset="0.829" stop-color="#796ef3"  />
			<stop offset="1" stop-color="#7967f3"  />
		</linearGradient>
		<linearGradient id="grd32" gradientUnits="userSpaceOnUse"  x1="477.286" y1="370.85" x2="-257.962" y2="321.775">
			<stop offset="0" stop-color="#7984f3"  />
			<stop offset="0.174" stop-color="#797ff3"  />
			<stop offset="0.463" stop-color="#7975f3"  />
			<stop offset="0.829" stop-color="#796ef3"  />
			<stop offset="1" stop-color="#7967f3"  />
		</linearGradient>
		<linearGradient id="grd33" gradientUnits="userSpaceOnUse"  x1="298.717" y1="289.811" x2="304.379" y2="193.555">
			<stop offset="0" stop-color="#7968f3"  />
			<stop offset="0.119" stop-color="#796df3"  />
			<stop offset="0.276" stop-color="#7975f3"  />
			<stop offset="0.455" stop-color="#797af3"  />
			<stop offset="0.65" stop-color="#797ef3"  />
			<stop offset="0.855" stop-color="#7982f3"  />
			<stop offset="1" stop-color="#a0a9fb"  />
		</linearGradient>
		<linearGradient id="grd34" gradientUnits="userSpaceOnUse"  x1="281.443" y1="149.021" x2="282.948" y2="130.593">
			<stop offset="0" stop-color="#7968f3"  />
			<stop offset="0.119" stop-color="#796df3"  />
			<stop offset="0.276" stop-color="#7975f3"  />
			<stop offset="0.455" stop-color="#797af3"  />
			<stop offset="0.65" stop-color="#797ef3"  />
			<stop offset="0.855" stop-color="#7982f3"  />
			<stop offset="1" stop-color="#a0a9fb"  />
		</linearGradient>
		<linearGradient id="grd35" gradientUnits="userSpaceOnUse"  x1="269.505" y1="134.344" x2="271.06" y2="84.131">
			<stop offset="0" stop-color="#7968f3"  />
			<stop offset="0.119" stop-color="#796df3"  />
			<stop offset="0.276" stop-color="#7975f3"  />
			<stop offset="0.455" stop-color="#797af3"  />
			<stop offset="0.65" stop-color="#797ef3"  />
			<stop offset="0.855" stop-color="#7982f3"  />
			<stop offset="1" stop-color="#a0a9fb"  />
		</linearGradient>
		<linearGradient id="grd36" gradientUnits="userSpaceOnUse"  x1="369.652" y1="145.552" x2="395.726" y2="38.895">
			<stop offset="0" stop-color="#7968f3"  />
			<stop offset="0.119" stop-color="#796df3"  />
			<stop offset="0.276" stop-color="#7975f3"  />
			<stop offset="0.455" stop-color="#797af3"  />
			<stop offset="0.65" stop-color="#797ef3"  />
			<stop offset="0.855" stop-color="#7982f3"  />
			<stop offset="1" stop-color="#a0a9fb"  />
		</linearGradient>
		<linearGradient id="grd37" gradientUnits="userSpaceOnUse"  x1="529.077" y1="154.81" x2="530.669" y2="136.707">
			<stop offset="0" stop-color="#7968f3"  />
			<stop offset="0.119" stop-color="#796df3"  />
			<stop offset="0.276" stop-color="#7975f3"  />
			<stop offset="0.455" stop-color="#797af3"  />
			<stop offset="0.65" stop-color="#797ef3"  />
			<stop offset="0.855" stop-color="#7982f3"  />
			<stop offset="1" stop-color="#a0a9fb"  />
		</linearGradient>
		<linearGradient id="grd38" gradientUnits="userSpaceOnUse"  x1="550.579" y1="237.927" x2="555.872" y2="175.1">
			<stop offset="0" stop-color="#7968f3"  />
			<stop offset="0.119" stop-color="#796df3"  />
			<stop offset="0.276" stop-color="#7975f3"  />
			<stop offset="0.455" stop-color="#797af3"  />
			<stop offset="0.65" stop-color="#797ef3"  />
			<stop offset="0.855" stop-color="#7982f3"  />
			<stop offset="1" stop-color="#a0a9fb"  />
		</linearGradient>
		<linearGradient id="grd39" gradientUnits="userSpaceOnUse"  x1="557.712" y1="236.858" x2="561.757" y2="179.234">
			<stop offset="0" stop-color="#7968f3"  />
			<stop offset="0.119" stop-color="#796df3"  />
			<stop offset="0.276" stop-color="#7975f3"  />
			<stop offset="0.455" stop-color="#797af3"  />
			<stop offset="0.65" stop-color="#797ef3"  />
			<stop offset="0.855" stop-color="#7982f3"  />
			<stop offset="1" stop-color="#a0a9fb"  />
		</linearGradient>
		<linearGradient id="grd40" gradientUnits="userSpaceOnUse"  x1="908.43" y1="527.278" x2="908.43" y2="618.781">
			<stop offset="0" stop-color="#7969f3"  />
			<stop offset="1" stop-color="#7985f3"  />
		</linearGradient>
		<linearGradient id="grd41" gradientUnits="userSpaceOnUse"  x1="979.065" y1="551.509" x2="964.511" y2="607.037">
			<stop offset="0" stop-color="#7979f3"  />
			<stop offset="0.205" stop-color="#797ff3"  />
			<stop offset="0.596" stop-color="#969ff1"  />
			<stop offset="1" stop-color="#a9b0f9"  />
		</linearGradient>
		<linearGradient id="grd42" gradientUnits="userSpaceOnUse"  x1="896.957" y1="600.491" x2="896.957" y2="716.002">
			<stop offset="0" stop-color="#7969f3"  />
			<stop offset="1" stop-color="#7985f3"  />
		</linearGradient>
		<linearGradient id="grd43" gradientUnits="userSpaceOnUse"  x1="949.31" y1="589.034" x2="949.31" y2="650.865">
			<stop offset="0" stop-color="#7969f3"  />
			<stop offset="1" stop-color="#7985f3"  />
		</linearGradient>
		<linearGradient id="grd44" gradientUnits="userSpaceOnUse"  x1="975.023" y1="568.372" x2="975.023" y2="577.609">
			<stop offset="0" stop-color="#7979f3"  />
			<stop offset="0.205" stop-color="#797ff3"  />
			<stop offset="0.596" stop-color="#969ff1"  />
			<stop offset="1" stop-color="#a9b0f9"  />
		</linearGradient>
		<linearGradient id="grd45" gradientUnits="userSpaceOnUse"  x1="968.726" y1="572.572" x2="968.726" y2="584.677">
			<stop offset="0" stop-color="#7979f3"  />
			<stop offset="0.205" stop-color="#797ff3"  />
			<stop offset="0.596" stop-color="#969ff1"  />
			<stop offset="1" stop-color="#a9b0f9"  />
		</linearGradient>
		<linearGradient id="grd46" gradientUnits="userSpaceOnUse"  x1="964.435" y1="580.058" x2="964.435" y2="592.169">
			<stop offset="0" stop-color="#7979f3"  />
			<stop offset="0.205" stop-color="#797ff3"  />
			<stop offset="0.596" stop-color="#969ff1"  />
			<stop offset="1" stop-color="#a9b0f9"  />
		</linearGradient>
		<linearGradient id="grd47" gradientUnits="userSpaceOnUse"  x1="960.145" y1="587.551" x2="960.145" y2="599.655">
			<stop offset="0" stop-color="#7979f3"  />
			<stop offset="0.205" stop-color="#797ff3"  />
			<stop offset="0.596" stop-color="#969ff1"  />
			<stop offset="1" stop-color="#a9b0f9"  />
		</linearGradient>
		<linearGradient id="grd48" gradientUnits="userSpaceOnUse"  x1="496.701" y1="396.154" x2="496.701" y2="473.462">
			<stop offset="0" stop-color="#7969f3"  />
			<stop offset="1" stop-color="#7985f3"  />
		</linearGradient>
		<linearGradient id="grd49" gradientUnits="userSpaceOnUse"  x1="518.79" y1="453.025" x2="518.79" y2="575.481">
			<stop offset="0" stop-color="#7969f3"  />
			<stop offset="1" stop-color="#7985f3"  />
		</linearGradient>
		<linearGradient id="grd50" gradientUnits="userSpaceOnUse"  x1="492.284" y1="466.868" x2="492.284" y2="546.878">
			<stop offset="0" stop-color="#7969f3"  />
			<stop offset="1" stop-color="#7985f3"  />
		</linearGradient>
		<linearGradient id="grd51" gradientUnits="userSpaceOnUse"  x1="503.785" y1="487.459" x2="503.785" y2="574.325">
			<stop offset="0" stop-color="#7969f3"  />
			<stop offset="1" stop-color="#7985f3"  />
		</linearGradient>
	</defs>
	<style>
		tspan { white-space:pre }
		.shp0 { fill: url(#grd1) } 
		.shp1 { opacity: 0.49;fill: url(#grd2) } 
		.shp2 { opacity: 0.49;fill: url(#grd3) } 
		.shp3 { opacity: 0.49;fill: url(#grd4) } 
		.shp4 { fill: #ffffff } 
		.shp5 { fill: url(#grd5) } 
		.shp6 { fill: url(#grd6) } 
		.shp7 { fill: url(#grd7) } 
		.shp8 { fill: url(#grd8) } 
		.shp9 { fill: url(#grd9) } 
		.shp10 { fill: url(#grd10) } 
		.shp11 { fill: url(#grd11) } 
		.shp12 { fill: url(#grd12) } 
		.shp13 { fill: url(#grd13) } 
		.shp14 { fill: url(#grd14) } 
		.shp15 { fill: url(#grd15) } 
		.shp16 { fill: url(#grd16) } 
		.shp17 { fill: url(#grd17) } 
		.shp18 { fill: url(#grd18) } 
		.shp19 { fill: url(#grd19) } 
		.shp20 { fill: url(#grd20) } 
		.shp21 { fill: url(#grd21) } 
		.shp22 { fill: url(#grd22) } 
		.shp23 { fill: url(#grd23) } 
		.shp24 { fill: url(#grd24) } 
		.shp25 { fill: url(#grd25) } 
		.shp26 { fill: url(#grd26) } 
		.shp27 { fill: url(#grd27) } 
		.shp28 { fill: url(#grd28) } 
		.shp29 { fill: url(#grd29) } 
		.shp30 { fill: url(#grd30) } 
		.shp31 { fill: url(#grd31) } 
		.shp32 { fill: url(#grd32) } 
		.shp33 { fill: url(#grd33) } 
		.shp34 { fill: url(#grd34) } 
		.shp35 { fill: url(#grd35) } 
		.shp36 { fill: url(#grd36) } 
		.shp37 { fill: url(#grd37) } 
		.shp38 { fill: url(#grd38) } 
		.shp39 { fill: url(#grd39) } 
		.shp40 { fill: #ffde83 } 
		.shp41 { fill: url(#grd40) } 
		.shp42 { fill: url(#grd41) } 
		.shp43 { fill: #7985f3 } 
		.shp44 { opacity: 0.102;fill: #000000 } 
		.shp45 { fill: #eef2f5 } 
		.shp46 { fill: url(#grd42) } 
		.shp47 { fill: url(#grd43) } 
		.shp48 { fill: #002172 } 
		.shp49 { fill: url(#grd44) } 
		.shp50 { fill: url(#grd45) } 
		.shp51 { fill: url(#grd46) } 
		.shp52 { fill: url(#grd47) } 
		.shp53 { fill: url(#grd48) } 
		.shp54 { fill: url(#grd49) } 
		.shp55 { fill: url(#grd50) } 
		.shp56 { opacity: 0.102;fill: url(#grd51) } 
	</style>
	<g id="Web 1920 – 1">
		<g id="Group 2">
			<g id="Layer 1">
				<g id="Market Research">
					<path id="Path 1" class="shp0" d="M966.69 863.4C805.33 836.36 934.91 934.15 679.19 995.87C653.85 1002.49 627.68 1005.4 601.51 1004.51C598.67 1004.45 595.84 1004.25 593.13 1003.92C592.71 1003.94 592.29 1003.89 591.88 1003.79C589.64 1003.59 587.46 1003.32 585.35 1002.99C584.09 1002.86 582.84 1002.66 581.59 1002.4C580.7 1002.29 579.82 1002.11 578.96 1001.87C577.02 1001.61 575.11 1001.23 573.22 1000.75C572.93 1000.69 572.64 1000.61 572.36 1000.49C570.45 1000.09 568.6 999.63 566.76 999.1C564.38 998.51 562.14 997.79 559.9 996.99C557.66 996.27 555.41 995.48 553.31 994.62C549.03 992.94 544.85 991.02 540.78 988.88C539.52 988.29 538.27 987.56 537.08 986.9C536.13 986.43 535.21 985.9 534.31 985.32C533.26 984.73 532.27 984.07 531.28 983.48C523.93 978.84 517.03 973.54 510.64 967.65C509.12 966.27 507.68 964.81 506.16 963.36C504.77 962.05 503.39 960.66 502 959.21C493.34 949.92 485.39 940 478.2 929.54C476.35 926.96 474.57 924.33 472.73 921.62C468.31 914.9 463.95 908.04 459.67 901.12C457.82 898.21 456.04 895.38 454.26 892.48C450.63 886.54 447.01 880.61 443.25 874.74C442.06 872.83 440.88 870.98 439.69 869.13C437.25 865.31 434.74 861.49 432.17 857.66C430.33 854.89 428.41 852.25 426.57 849.68C425.64 848.36 424.72 847.11 423.8 845.86C387.66 796.47 338.8 757.5 237.12 768.84C233.82 769.43 230.59 770.02 227.43 770.49C193.22 776.69 157.98 773.64 125.35 761.65C69.69 739.96 33.56 689.12 15.43 622.32C4.57 585.56 -0.07 547.25 1.71 508.97C13.65 331.98 163.79 147.15 344.27 153.15C370.97 154.03 397.33 159.44 422.22 169.17C531.61 211.7 501.02 194.1 586.08 82.66C589.64 78.04 593.4 73.1 597.49 68.08C599.14 65.91 600.92 63.86 602.7 61.82C603.88 60.5 605 59.25 606.19 57.93C608.37 55.56 610.54 53.25 612.79 51C615.03 48.83 617.27 46.65 619.58 44.61C621.75 42.63 624 40.72 626.3 38.81C626.37 38.81 626.43 38.74 626.5 38.67C628.74 36.89 631.05 35.11 633.36 33.4C633.57 33.23 633.79 33.08 634.02 32.94C636.19 31.35 638.44 29.84 640.68 28.39L641.87 27.6C643.98 26.28 646.02 25.02 648.13 23.77C650.57 22.39 653.08 21 655.58 19.75C657.76 18.69 659.93 17.64 662.11 16.65C662.62 16.4 663.15 16.18 663.69 15.99C666.07 14.93 668.44 13.95 670.88 13.02C673.12 12.17 675.43 11.37 677.67 10.65C680.57 9.66 683.54 8.8 686.44 8.08C688.22 7.62 689.94 7.22 691.65 6.82C693.1 6.49 694.55 6.16 696 5.9C697.92 5.5 699.83 5.18 701.67 4.91L703.06 4.71C705.43 4.32 707.81 4.05 710.18 3.79L710.71 3.79C712.62 3.59 714.6 3.39 716.51 3.33C716.93 3.28 717.34 3.25 717.76 3.26C718.55 3.2 719.35 3.13 720.14 3.13C722.25 3.06 724.42 3 726.53 3C758.36 3.45 789.59 11.64 817.53 26.87C824.86 30.74 831.97 35.01 838.83 39.66C845.88 44.39 852.68 49.47 859.21 54.89C861.38 56.74 863.56 58.59 865.67 60.5C869.96 64.32 874.18 68.28 878.26 72.44C901.42 95.98 920.16 123.5 933.59 153.67C975.79 248.7 920.07 249.88 1075.89 361.92C1231.84 473.95 1213.04 904.8 966.69 863.4Z" />
					<path id="Path 2" class="shp1" d="M966.69 863.4C805.33 836.36 934.91 934.15 679.19 995.87C653.85 1002.49 627.68 1005.4 601.51 1004.51C598.67 1004.45 595.84 1004.25 593.13 1003.92C592.71 1003.94 592.29 1003.89 591.88 1003.79C589.64 1003.59 587.46 1003.32 585.35 1002.99C584.09 1002.86 582.84 1002.66 581.59 1002.4C580.7 1002.29 579.82 1002.11 578.96 1001.87C577.02 1001.61 575.11 1001.23 573.22 1000.75C572.93 1000.69 572.64 1000.61 572.36 1000.49C570.45 1000.09 568.6 999.63 566.76 999.1C564.38 998.51 562.14 997.79 559.9 996.99C557.66 996.27 555.41 995.48 553.31 994.62C549.03 992.94 544.85 991.02 540.78 988.88C539.52 988.29 538.27 987.56 537.08 986.9C536.13 986.43 535.21 985.9 534.31 985.32C533.26 984.73 532.27 984.07 531.28 983.48C523.93 978.84 517.03 973.54 510.64 967.65C509.12 966.27 507.68 964.81 506.16 963.36C504.77 962.05 503.39 960.66 502 959.21C493.34 949.92 485.39 940 478.2 929.54C476.35 926.96 474.51 924.26 472.73 921.62C468.31 914.9 463.95 908.04 459.67 901.12C457.82 898.21 456.04 895.38 454.26 892.48C450.63 886.54 447.01 880.61 443.25 874.74C442.06 872.89 440.88 870.98 439.69 869.13C437.25 865.31 434.74 861.49 432.17 857.66C430.33 854.89 428.41 852.25 426.57 849.68C425.64 848.36 424.72 847.11 423.8 845.86C387.66 796.47 338.8 757.5 237.12 768.84C233.82 769.43 230.59 770.02 227.43 770.49C263.23 731.38 303.06 691.55 327.19 678.1C441.4 614.41 448.06 646.19 532.2 593.63C638.5 527.1 700.09 395.35 682.81 271.18C672.05 199.45 638.07 133.23 586.08 82.66C589.64 78.04 593.4 73.1 597.49 68.08C599.14 65.91 600.92 63.86 602.7 61.82C603.88 60.5 605 59.25 606.19 57.93C608.37 55.56 610.54 53.25 612.79 51C615.03 48.83 617.27 46.65 619.58 44.61C621.75 42.63 624 40.72 626.3 38.81C626.37 38.81 626.43 38.74 626.5 38.67C628.74 36.89 631.05 35.11 633.36 33.4C633.57 33.23 633.79 33.08 634.02 32.94C636.19 31.35 638.44 29.84 640.68 28.39L641.87 27.6C643.98 26.28 646.02 25.02 648.13 23.77C650.57 22.39 653.08 21 655.58 19.75C657.76 18.69 659.93 17.64 662.11 16.65C662.62 16.4 663.15 16.18 663.69 15.99C666.07 14.93 668.44 13.95 670.88 13.02C673.12 12.17 675.43 11.37 677.67 10.65C680.57 9.66 683.54 8.8 686.44 8.08C688.22 7.62 689.94 7.22 691.65 6.82C693.1 6.49 694.55 6.16 696 5.9C697.92 5.5 699.83 5.18 701.67 4.91L703.06 4.71C705.43 4.32 707.81 4.05 710.18 3.79L710.71 3.79C712.62 3.59 714.6 3.39 716.51 3.33C716.93 3.28 717.34 3.25 717.76 3.26C718.55 3.2 719.35 3.13 720.14 3.13C722.25 3.06 724.42 3 726.53 3C758.36 3.45 789.59 11.64 817.53 26.87C824.85 30.77 831.95 35.04 838.83 39.66C845.82 44.34 852.61 49.49 859.21 54.89C861.38 56.74 863.56 58.59 865.67 60.5C869.96 64.32 874.18 68.28 878.26 72.44C901.42 95.98 920.16 123.5 933.59 153.67C975.79 248.7 920.07 249.88 1075.89 361.92C1231.84 473.95 1213.04 904.8 966.69 863.4Z" />
					<path id="Path 3" class="shp2" d="M966.69 863.41C805.33 836.37 934.89 934.14 679.2 995.88C656.58 1001.7 633.33 1004.69 609.97 1004.78C506.04 1003.98 477.42 924.54 432.15 857.69C433.73 855.48 435.49 853.37 437.25 851.34C452.82 835.24 471.06 821.95 491.16 812.06C573.51 766.17 661.76 726.89 728.53 660.39C792 597.13 831.06 513.45 838.8 424.17C845.88 334.76 819.87 245.86 765.7 174.38C724.45 121.42 669.19 81.09 606.19 57.94C706.59 -52.42 872.27 15.84 933.57 153.68C961.76 217.1 946.34 238.67 979.2 279.37C995.58 299.62 1024.03 324.64 1075.91 361.9C1231.8 473.93 1213.04 904.8 966.69 863.41Z" />
					<path id="Path 4" class="shp3" d="M966.69 863.41C805.33 836.37 934.89 934.14 679.2 995.88C656.58 1001.7 633.33 1004.69 609.97 1004.78C624.7 961.88 650.06 923.43 683.69 893.01C734.08 845.8 796.35 813.74 854.65 776.74C912.96 739.66 969.77 695.01 999.9 632.82C1031.78 567.12 1029.75 489.78 1016.19 418C1010.38 387.09 1002.45 356.61 994.7 326.14C992.58 317.94 985.01 298.39 979.2 279.37C995.58 299.62 1024.03 324.64 1075.91 361.9C1231.8 473.93 1213.04 904.8 966.69 863.41Z" />
					<g id="Group 1">
						<path id="Path 5" class="shp4" d="M732.47 58.33L734.13 60.83L736.63 62.5L734.13 64.17L732.47 66.67L730.8 64.17L728.3 62.5L730.8 60.83L732.47 58.33Z" />
						<path id="Path 6" class="shp4" d="M851.89 151.19L853.55 153.69L856.05 155.36L853.55 157.02L851.89 159.52L850.22 157.02L847.72 155.36L850.22 153.69L851.89 151.19Z" />
						<path id="Path 7" class="shp4" d="M612.09 227.56L613.76 230.06L616.26 231.73L613.76 233.4L612.09 235.89L610.42 233.4L607.92 231.73L610.42 230.06L612.09 227.56Z" />
						<path id="Path 8" class="shp4" d="M608.24 524.63L609.91 527.13L612.41 528.79L609.91 530.46L608.24 532.96L606.58 530.46L604.08 528.79L606.58 527.13L608.24 524.63Z" />
						<path id="Path 9" class="shp4" d="M78.15 369.71L79.82 372.21L82.32 373.87L79.82 375.54L78.15 378.04L76.48 375.54L73.99 373.87L76.48 372.21L78.15 369.71Z" />
						<path id="Path 10" class="shp4" d="M221.83 218.68L223.51 221.17L226 222.85L223.51 224.52L221.83 227.01L220.16 224.52L217.67 222.85L220.16 221.17L221.83 218.68Z" />
						<path id="Path 11" class="shp4" d="M308.11 355.48L309.78 357.98L312.28 359.65L309.78 361.32L308.11 363.81L306.45 361.32L303.95 359.65L306.45 357.98L308.11 355.48Z" />
						<path id="Path 12" class="shp4" d="M95.93 602.67L97.6 605.17L100.1 606.83L97.6 608.5L95.93 611L94.26 608.5L91.77 606.83L94.26 605.17L95.93 602.67Z" />
						<path id="Path 13" class="shp4" d="M392.45 635.88L394.13 638.38L396.62 640.04L394.13 641.71L392.45 644.21L390.79 641.71L388.29 640.04L390.79 638.38L392.45 635.88Z" />
						<path id="Path 14" class="shp4" d="M1099.29 572.36L1100.96 574.86L1103.45 576.53L1100.96 578.2L1099.29 580.69L1097.62 578.2L1095.12 576.53L1097.62 574.86L1099.29 572.36Z" />
						<path id="Path 15" class="shp4" d="M1097.18 421.03L1098.84 423.52L1101.34 425.19L1098.84 426.86L1097.18 429.36L1095.51 426.86L1093.01 425.19L1095.51 423.52L1097.18 421.03Z" />
						<path id="Path 16" class="shp4" d="M932.1 281.84L933.77 284.33L936.26 286L933.77 287.67L932.1 290.17L930.43 287.67L927.93 286L930.43 284.33L932.1 281.84Z" />
						<path id="Path 17" class="shp4" d="M761.71 695.5L763.38 697.99L765.88 699.66L763.38 701.33L761.71 703.83L760.04 701.33L757.55 699.66L760.04 697.99L761.71 695.5Z" />
						<path id="Path 18" class="shp4" d="M599.71 676.06L601.37 678.56L603.87 680.23L601.37 681.9L599.71 684.4L598.04 681.9L595.54 680.23L598.04 678.56L599.71 676.06Z" />
						<path id="Path 19" class="shp4" d="M381.4 765.3L383.07 767.8L385.57 769.47L383.07 771.14L381.4 773.63L379.73 771.14L377.24 769.47L379.73 767.8L381.4 765.3Z" />
						<path id="Path 20" class="shp4" d="M639.61 364.32L641.29 366.82L643.78 368.49L641.29 370.16L639.61 372.65L637.94 370.16L635.45 368.49L637.94 366.82L639.61 364.32Z" />
						<path id="Path 21" class="shp4" d="M728.74 117.72L732.65 123.56L738.49 127.47L732.65 131.38L728.74 137.22L724.83 131.38L718.99 127.47L724.83 123.56L728.74 117.72Z" />
						<path id="Path 22" class="shp4" d="M583.08 357.34L586.99 363.19L592.83 367.09L586.99 371L583.08 376.85L579.17 371L573.32 367.09L579.17 363.19L583.08 357.34Z" />
						<path id="Path 23" class="shp4" d="M179.28 309.34L183.19 315.18L189.03 319.09L183.19 323L179.28 328.84L175.37 323L169.53 319.09L175.37 315.18L179.28 309.34Z" />
						<path id="Path 24" class="shp4" d="M72.98 474.2L76.89 480.05L82.74 483.95L76.89 487.86L72.98 493.71L69.07 487.86L63.23 483.95L69.07 480.05L72.98 474.2Z" />
						<path id="Path 25" class="shp4" d="M138.8 678.1L142.72 683.94L148.55 687.85L142.72 691.76L138.8 697.6L134.89 691.76L129.05 687.85L134.89 683.94L138.8 678.1Z" />
						<path id="Path 26" class="shp4" d="M359.03 712.7L362.94 718.55L368.78 722.45L362.94 726.36L359.03 732.21L355.12 726.36L349.27 722.45L355.12 718.55L359.03 712.7Z" />
						<path id="Path 27" class="shp4" d="M628.9 566.77L632.81 572.61L638.66 576.52L632.81 580.43L628.9 586.27L625 580.43L619.15 576.52L625 572.61L628.9 566.77Z" />
						<path id="Path 28" class="shp4" d="M1103.75 507.14L1107.65 512.99L1113.5 516.9L1107.65 520.8L1103.75 526.65L1099.84 520.8L1093.99 516.9L1099.84 512.99L1103.75 507.14Z" />
						<path id="Path 29" class="shp4" d="M1137.98 670.05L1141.89 675.9L1147.73 679.8L1141.89 683.71L1137.98 689.56L1134.07 683.71L1128.23 679.8L1134.07 675.9L1137.98 670.05Z" />
						<path id="Path 30" class="shp4" d="M868.82 231.85L872.73 237.7L878.56 241.6L872.73 245.51L868.82 251.36L864.91 245.51L859.07 241.6L864.91 237.7L868.82 231.85Z" />
					</g>
					<path id="Path 31" class="shp5" d="M1035.67 375.4L1025.89 369.79L1025.89 369.79L867.9 279.02L700.15 182.63C697.12 180.89 679.93 188.4 679.93 192.61L694.66 200.68L694.66 524.96C694.72 536.81 700.38 547.92 709.92 554.93L1012.99 746.99C1021.42 751.83 1041.15 735.75 1041.15 724.04L1041.15 386.18C1041.13 381.92 1039.1 377.92 1035.67 375.4L1035.67 375.4Z" />
					<path id="Path 32" class="shp6" d="M1010.45 745.25L694.48 563.71C684.94 556.7 679.28 545.58 679.23 533.73L679.23 209.46C679.23 197.74 686.06 192.18 694.48 197.02L1010.45 378.56C1020 385.57 1025.66 396.69 1025.71 408.53L1025.71 732.81C1025.71 744.52 1018.87 750.09 1010.45 745.25Z" />
					<path id="Path 33" class="shp4" d="M1020.22 440.95L684.71 248.18C681.28 245.66 679.24 241.66 679.23 237.41L679.23 195.87C679.23 191.66 681.68 189.66 684.71 191.4L1020.23 384.17C1023.66 386.69 1025.69 390.69 1025.71 394.95L1025.71 436.48C1025.71 440.69 1023.26 442.69 1020.22 440.95Z" />
					<path id="Path 34" class="shp7" d="M721.27 240.8C721.27 246.02 718.22 248.51 714.46 246.35C710.2 243.22 707.67 238.26 707.65 232.97C707.65 227.75 710.7 225.26 714.46 227.42C718.72 230.55 721.25 235.51 721.27 240.8L721.27 240.8Z" />
					<path id="Path 35" class="shp8" d="M739.82 251.46C739.82 256.68 736.77 259.17 733.01 257.01C728.75 253.88 726.22 248.92 726.2 243.63C726.2 238.41 729.25 235.92 733.01 238.08C737.27 241.21 739.79 246.17 739.82 251.46L739.82 251.46Z" />
					<path id="Path 36" class="shp9" d="M758.38 262.12C758.38 267.34 755.33 269.83 751.57 267.67C747.31 264.54 744.78 259.58 744.76 254.29C744.76 249.07 747.81 246.58 751.57 248.74C755.83 251.87 758.35 256.83 758.38 262.12L758.38 262.12Z" />
					<path id="Path 37" class="shp4" d="M758.13 425.37L701.87 393.04C698.97 390.91 697.26 387.54 697.24 383.94L697.24 290.2C697.24 286.65 699.31 284.96 701.87 286.43L758.13 318.76C761.03 320.88 762.75 324.26 762.76 327.85L762.76 421.59C762.77 425.14 760.69 426.83 758.13 425.37Z" />
					<path id="Path 38" class="shp4" d="M1003.06 642.19L895.37 580.32C892.47 578.19 890.75 574.81 890.74 571.22L890.74 401.38C890.74 397.82 892.81 396.13 895.37 397.6L1003.06 459.48C1005.96 461.61 1007.68 464.98 1007.7 468.57L1007.7 638.42C1007.69 641.97 1005.62 643.66 1003.06 642.19Z" />
					<path id="Path 39" class="shp4" d="M816.07 377.12L782.86 358.04C779.96 355.91 778.24 352.54 778.23 348.94L778.23 336.74C778.23 333.18 780.3 331.49 782.86 332.96L816.07 352.04C818.97 354.17 820.68 357.54 820.7 361.14L820.7 373.34C820.7 376.9 818.63 378.59 816.07 377.12Z" />
					<path id="Path 40" class="shp4" d="M839.12 431.13L782.86 398.8C779.96 396.68 778.24 393.3 778.23 389.71L778.23 377.5C778.23 373.95 780.3 372.26 782.86 373.73L839.12 406.05C842.02 408.18 843.73 411.56 843.75 415.15L843.75 427.36C843.75 430.91 841.68 432.6 839.12 431.13Z" />
					<path id="Path 41" class="shp4" d="M839.12 471.9L782.86 439.57C779.96 437.44 778.24 434.07 778.23 430.48L778.23 418.27C778.23 414.72 780.3 413.03 782.86 414.5L839.12 446.82C842.02 448.95 843.73 452.32 843.75 455.92L843.75 468.12C843.75 471.68 841.68 473.37 839.12 471.9Z" />
					<path id="Path 42" class="shp4" d="M758.13 567.31L701.87 534.99C698.97 532.86 697.26 529.48 697.24 525.89L697.24 432.15C697.24 428.59 699.31 426.9 701.87 428.37L758.13 460.7C761.03 462.83 762.75 466.2 762.76 469.8L762.76 563.53C762.77 567.09 760.69 568.78 758.13 567.31Z" />
					<path id="Path 43" class="shp4" d="M816.07 519.06L782.86 499.98C779.96 497.85 778.24 494.48 778.23 490.88L778.23 478.68C778.23 475.13 780.3 473.44 782.86 474.9L816.07 493.99C818.97 496.11 820.68 499.49 820.7 503.08L820.7 515.29C820.7 518.84 818.63 520.53 816.07 519.06Z" />
					<path id="Path 44" class="shp4" d="M839.12 573.07L782.86 540.75C779.96 538.62 778.24 535.25 778.23 531.65L778.23 519.45C778.23 515.89 780.3 514.2 782.86 515.67L839.12 548C842.02 550.13 843.73 553.5 843.75 557.09L843.75 569.3C843.75 572.85 841.68 574.55 839.12 573.07Z" />
					<path id="Path 45" class="shp4" d="M839.12 613.84L782.86 581.51C779.96 579.39 778.24 576.01 778.23 572.42L778.23 560.21C778.23 556.66 780.3 554.97 782.86 556.44L839.12 588.76C842.02 590.89 843.73 594.27 843.75 597.86L843.75 610.06C843.75 613.62 841.68 615.31 839.12 613.84Z" />
					<path id="Path 46" class="shp4" d="M971.82 690.08L895.37 646.16C892.47 644.03 890.75 640.66 890.74 637.06L890.74 630.28C890.74 626.72 892.81 625.03 895.37 626.5L971.82 670.43C974.71 672.55 976.43 675.93 976.45 679.52L976.45 686.31C976.44 689.86 974.37 691.55 971.82 690.08Z" />
					<path id="Path 47" class="shp4" d="M971.82 664.27L895.37 620.35C892.47 618.22 890.75 614.85 890.74 611.25L890.74 604.47C890.74 600.92 892.81 599.23 895.37 600.69L971.82 644.62C974.71 646.75 976.43 650.12 976.45 653.71L976.45 660.5C976.44 664.06 974.37 665.75 971.82 664.27Z" />
					<path id="Path 48" class="shp10" d="M962.38 537.6L936.04 522.47C933.37 520.51 931.79 517.4 931.77 514.08L931.77 477.47C931.77 474.2 933.68 472.64 936.04 473.99L962.38 489.13C965.06 491.09 966.64 494.2 966.65 497.51L966.65 534.12C966.65 537.4 964.74 538.96 962.38 537.6Z" />
					<path id="Path 49" class="shp11" d="M963.2 479.7L935.22 463.62C933.92 462.98 932.35 463.48 931.66 464.75L926.89 472.31C925.36 474.73 925.43 477.8 927.24 478.84L971.17 504.08C972.99 505.12 973.06 502.13 971.53 497.95L966.76 484.92C966.1 482.87 964.86 481.06 963.2 479.7L963.2 479.7Z" />
					<path id="Path 50" class="shp4" d="M953.44 530.43L944.99 525.57C943.14 524.22 942.05 522.07 942.04 519.79L942.04 503.86C942.04 501.6 943.36 500.52 944.99 501.46L953.44 506.31C955.28 507.67 956.37 509.81 956.38 512.1L956.38 528.03C956.39 530.29 955.07 531.36 953.44 530.43Z" />
					<path id="Path 51" class="shp12" d="M992.65 572.7C992.65 575.78 990.81 577.28 988.59 576L914.44 533.4C911.94 531.54 910.46 528.6 910.45 525.47C910.45 522.39 912.23 520.85 914.44 522.13L988.59 564.73C991.12 566.6 992.62 569.55 992.65 572.7Z" />
					<path id="Path 52" class="shp13" d="M974.72 562.39C974.72 565.48 972.88 566.97 970.66 565.7L914.45 533.4C911.94 531.54 910.46 528.6 910.46 525.47C910.46 522.39 912.23 520.85 914.45 522.13L970.66 554.43C973.19 556.3 974.69 559.25 974.72 562.39L974.72 562.39Z" />
					<path id="Path 53" class="shp14" d="M992.65 591.63C992.65 594.71 990.81 596.21 988.59 594.94L914.44 552.34C911.94 550.47 910.46 547.53 910.45 544.41C910.45 541.23 912.23 539.79 914.44 541.06L988.59 583.66C991.14 585.52 992.64 588.48 992.65 591.63L992.65 591.63Z" />
					<path id="Path 54" class="shp15" d="M953.61 569.2C953.61 572.29 951.78 573.78 949.56 572.51L914.45 552.34C911.94 550.47 910.46 547.53 910.46 544.41C910.46 541.23 912.23 539.79 914.45 541.06L949.56 561.23C952.1 563.09 953.61 566.05 953.61 569.2Z" />
					<path id="Path 55" class="shp16" d="M992.65 610.57C992.65 613.65 990.81 615.15 988.59 613.87L914.44 571.27C911.94 569.41 910.46 566.47 910.45 563.34C910.45 560.17 912.23 558.72 914.44 560L988.59 602.6C991.14 604.46 992.64 607.42 992.65 610.57Z" />
					<path id="Path 56" class="shp17" d="M968 596.4C968 599.49 966.23 601.02 963.94 599.71L914.45 571.27C911.94 569.41 910.46 566.47 910.46 563.34C910.46 560.17 912.23 558.72 914.45 560L963.94 588.44C966.5 590.28 968.01 593.25 968 596.4L968 596.4Z" />
					<path id="Path 57" class="shp4" d="M1041.98 464.83L957.9 416.52C951.14 412.64 935.8 418.74 935.8 428.13C935.8 437.52 951.14 446.65 957.9 450.53L1032.11 502.39C1038.87 506.27 1054.21 498.26 1054.21 488.86C1054.17 479.37 1049.63 470.45 1041.98 464.83L1041.98 464.83Z" />
					<path id="Path 58" class="shp18" d="M1032.11 502.39L948.03 454.08C940.38 448.46 935.84 439.54 935.8 430.05L935.8 430.05C935.8 420.65 941.27 416.19 948.03 420.07L1032.11 468.38C1039.77 474 1044.3 482.92 1044.35 492.41L1044.35 492.41C1044.35 501.8 1038.87 506.27 1032.11 502.39Z" />
					<path id="Path 59" fill-rule="evenodd" class="shp4" d="M1029.82 474.04C1032.15 477.78 1032.37 482.47 1030.39 486.41L1036.83 499.07L1035.57 500.09L1029.13 487.44C1026.54 488.69 1022.82 486.32 1020.46 481.67C1017.88 476.6 1017.88 470.76 1020.46 468.66C1023.04 466.56 1027.24 468.97 1029.82 474.04ZM1028.57 484.58C1030.45 483.04 1030.45 478.77 1028.57 475.06C1026.68 471.35 1023.6 469.59 1021.72 471.13C1019.83 472.67 1019.83 476.94 1021.72 480.64C1023.6 484.35 1026.68 486.12 1028.56 484.58L1028.57 484.58Z" />
					<path id="Path 60" class="shp4" d="M177.19 700.59C227.39 652.15 213.88 589.05 242.16 570.13C266.94 559.89 267.43 612.79 283.2 603.39C298.97 594 310.87 495.12 332.98 482.44C355.09 469.76 349.02 524.09 369.72 512.22C390.42 500.35 386.67 449.83 407.77 437.72C428.88 425.61 416.14 539.59 445.15 520.6C472.06 502.99 469.39 425.76 481.52 417.85C491.78 411.96 493.1 502.96 507.7 511.01L177.19 700.59Z" />
					<path id="Path 61" class="shp19" d="M177.19 700.59C227.39 659.08 213.88 620.98 242.16 603.01C266.94 591.37 267.43 625.5 283.2 616.23C298.97 606.96 310.87 540.56 332.98 527.87C355.09 515.19 349.02 551.59 369.72 539.71C390.42 527.84 386.67 495.9 407.77 483.79C428.88 471.68 416.14 548.03 445.15 529.87C472.06 513.03 469.39 463.58 481.52 456.01C491.78 450.12 493.1 508.75 507.7 511L177.19 700.59Z" />
					<path id="Path 62" class="shp4" d="M188.7 479.03L188.7 582.04C188.67 586.49 186.54 590.67 182.95 593.31C179.78 595.12 177.19 593.03 177.19 588.64L177.19 485.63C177.22 481.18 179.36 477 182.95 474.36C186.11 472.55 188.7 474.64 188.7 479.03Z" />
					<path id="Path 63" class="shp4" d="M242.82 394.02L242.82 497.12C242.82 501.55 240.71 505.72 237.13 508.35C233.96 510.16 231.38 508.07 231.38 503.68L231.38 400.58C231.41 396.15 233.54 392 237.13 389.41C240.3 387.59 242.82 389.63 242.82 394.02Z" />
					<path id="Path 64" class="shp4" d="M279.81 422.74L279.81 525.75C279.8 530.19 277.69 534.35 274.12 536.98C270.88 538.84 268.36 536.7 268.36 532.32L268.36 429.31C268.37 424.85 270.51 420.66 274.12 418.04C277.29 416.22 279.81 418.36 279.81 422.74Z" />
					<path id="Path 65" class="shp4" d="M338.71 318.07L338.71 421.08C338.68 425.54 336.55 429.71 332.96 432.35C329.79 434.16 327.2 432.07 327.2 427.68L327.2 324.67C327.21 320.21 329.35 316.02 332.96 313.4C336.13 311.59 338.71 313.59 338.71 318.07Z" />
					<path id="Path 66" class="shp4" d="M370.98 341.54L370.98 444.64C370.95 449.09 368.82 453.27 365.22 455.9C362.05 457.72 359.47 455.62 359.47 451.24L359.47 348.14C359.5 343.71 361.64 339.56 365.22 336.96C368.39 335.14 370.98 337.15 370.98 341.54Z" />
					<path id="Path 67" class="shp4" d="M410.81 292.11L410.81 395.21C410.78 399.64 408.64 403.79 405.05 406.38C401.88 408.2 399.3 406.2 399.3 401.81L399.3 298.71C399.33 294.25 401.46 290.08 405.05 287.44C408.22 285.63 410.81 287.72 410.81 292.11Z" />
					<path id="Path 68" class="shp4" d="M452.32 333.36L452.32 436.46C452.29 440.91 450.15 445.09 446.57 447.73C443.4 449.54 440.81 447.45 440.81 443.06L440.81 339.96C440.84 335.51 442.97 331.33 446.57 328.69C449.73 326.88 452.32 328.97 452.32 333.36Z" />
					<path id="Path 69" class="shp4" d="M507.73 290.21L507.73 393.22C507.7 397.67 505.57 401.85 501.98 404.48C498.81 406.3 496.22 404.21 496.22 399.82L496.22 296.81C496.25 292.35 498.39 288.18 501.98 285.54C505.15 283.72 507.73 285.82 507.73 290.21Z" />
					<path id="Path 70" class="shp4" d="M484.84 256.98L484.84 360.08C484.81 364.53 482.68 368.71 479.09 371.34C475.92 373.16 473.33 371.07 473.33 366.68L473.33 263.58C473.36 259.15 475.5 255 479.09 252.4C482.26 250.58 484.84 252.59 484.84 256.98Z" />
					<path id="Path 71" class="shp20" d="M188.7 519.21L188.7 582.04C188.67 586.5 186.54 590.67 182.95 593.31C179.78 595.13 177.19 593.03 177.19 588.64L177.19 525.82C177.22 521.39 179.36 517.24 182.95 514.64C186.11 512.82 188.7 514.83 188.7 519.21Z" />
					<path id="Path 72" class="shp21" d="M242.82 434.29L242.82 497.12C242.82 501.55 240.71 505.72 237.13 508.35C233.96 510.16 231.38 508.07 231.38 503.68L231.38 440.86C231.41 436.4 233.54 432.22 237.13 429.59C240.3 427.77 242.82 429.91 242.82 434.29Z" />
					<path id="Path 73" class="shp22" d="M279.81 462.92L279.81 525.75C279.8 530.19 277.69 534.35 274.12 536.98C270.88 538.84 268.36 536.7 268.36 532.32L268.36 469.49C268.37 465.06 270.51 460.9 274.12 458.31C277.29 456.5 279.81 458.54 279.81 462.92Z" />
					<path id="Path 74" class="shp23" d="M338.71 358.25L338.71 421.08C338.68 425.54 336.55 429.71 332.96 432.35C329.79 434.16 327.2 432.07 327.2 427.68L327.2 364.86C327.23 360.4 329.37 356.22 332.96 353.59C336.13 351.77 338.71 353.87 338.71 358.25Z" />
					<path id="Path 75" class="shp24" d="M370.98 381.81L370.98 444.64C370.95 449.09 368.82 453.27 365.22 455.9C362.05 457.72 359.47 455.62 359.47 451.24L359.47 388.41C359.5 383.96 361.63 379.78 365.22 377.15C368.39 375.33 370.98 377.42 370.98 381.81Z" />
					<path id="Path 76" class="shp25" d="M410.81 332.38L410.81 395.21C410.78 399.64 408.64 403.79 405.05 406.38C401.88 408.2 399.3 406.2 399.3 401.81L399.3 338.98C399.33 334.53 401.46 330.35 405.05 327.72C408.22 325.9 410.81 327.99 410.81 332.38Z" />
					<path id="Path 77" class="shp26" d="M452.32 373.63L452.32 436.46C452.29 440.91 450.15 445.09 446.57 447.73C443.4 449.54 440.81 447.45 440.81 443.06L440.81 380.23C440.84 375.78 442.97 371.6 446.57 368.97C449.73 367.15 452.32 369.25 452.32 373.63Z" />
					<path id="Path 78" class="shp27" d="M507.73 330.39L507.73 393.22C507.7 397.67 505.57 401.85 501.98 404.48C498.81 406.3 496.22 404.21 496.22 399.82L496.22 336.99C496.25 332.56 498.39 328.41 501.98 325.82C505.15 324 507.73 326.01 507.73 330.39Z" />
					<path id="Path 79" class="shp28" d="M484.84 297.25L484.84 360.08C484.81 364.53 482.68 368.71 479.09 371.34C475.92 373.16 473.33 371.07 473.33 366.68L473.33 303.85C473.36 299.4 475.5 295.22 479.09 292.59C482.26 290.77 484.84 292.86 484.84 297.25Z" />
					<path id="Path 80" fill-rule="evenodd" class="shp29" d="M858.58 1002.86C843.08 1011.89 815.75 1010.83 797.53 1000.49L723.27 958.34C710.55 951.12 705.83 941.31 709.3 932.96L661.64 905.91C614.59 924.9 543.69 919.76 494.97 892.11C441.08 861.52 429.56 778.06 475.4 751.35C521.25 724.64 629.09 739.19 682.47 770.65C711.23 787.61 718.88 840.88 698.5 875.84L742.51 917.28C755.33 916.73 768.06 919.62 779.39 925.64L861.07 929.7C879.29 940.04 894.31 989.18 858.58 1002.86ZM658.47 858.51C692.07 838.94 657.84 819.13 639.04 808.17C599.81 785.3 540.1 783.44 506.5 803.02C472.9 822.59 480.98 829.85 520.47 852.26C559.96 874.68 624.87 878.09 658.47 858.51Z" />
					<path id="Path 81" class="shp30" d="M755.54 886.19L729.76 901.22L649.6 855.72L675.38 840.69L755.54 886.19Z" />
					<path id="Path 82" class="shp31" d="M858.59 959.51L858.59 959.51C843.09 968.54 815.75 967.48 797.54 957.14L723.27 914.98C705.05 904.64 702.85 888.94 718.35 879.91L718.35 879.91C733.85 870.88 761.18 871.94 779.4 882.28L853.66 924.44C871.87 934.78 874.08 950.47 858.59 959.51Z" />
					<path id="Path 83" fill-rule="evenodd" class="shp32" d="M675.84 855.77C629.99 882.48 548.86 879.33 494.97 848.75C441.09 818.16 434.55 771.55 480.4 744.84C526.24 718.13 607.37 721.28 661.25 751.87C715.14 782.45 721.67 829.07 675.84 855.77ZM506.5 759.66C472.9 779.23 477.69 813.39 517.18 835.81C556.67 858.22 616.13 860.53 649.73 840.96C683.33 821.38 678.53 787.23 639.04 764.81C599.55 742.4 540.1 740.08 506.5 759.66Z" />
					<path id="Path 84" class="shp4" d="M292.57 221.72L284.84 217.23C288.52 218.93 292.83 218.51 296.1 216.12C305.43 210.06 311.29 199.91 311.88 188.81C312.27 184.84 310.51 180.97 307.25 178.67L314.98 183.16C318.23 185.46 320 189.33 319.6 193.3C319.02 204.4 313.16 214.55 303.83 220.61C300.56 223 296.25 223.43 292.57 221.72L292.57 221.72Z" />
					<path id="Path 85" class="shp4" d="M295.97 168.42C301.6 164.32 309 163.6 315.31 166.52L323.04 171.01C316.73 168.09 309.32 168.81 303.7 172.91C287.66 183.33 277.58 200.8 276.59 219.91C276.63 233.18 292.79 258.22 300.25 269.1C300.44 269.37 300.68 269.59 300.96 269.76L293.23 265.27C292.95 265.1 292.71 264.88 292.53 264.6C285.06 253.72 268.9 228.69 268.86 215.41C269.86 196.31 279.93 178.84 295.97 168.42Z" />
					<path id="Path 86" fill-rule="evenodd" class="shp33" d="M303.72 172.91C307.83 170.27 312.66 169.01 317.53 169.29C317.96 169.29 318.38 169.34 318.8 169.45C319.2 169.52 319.61 169.61 320 169.73C320.48 169.83 320.94 170 321.37 170.22C321.76 170.34 322.12 170.5 322.47 170.71C328.44 174.55 331.73 181.42 330.97 188.48C331.02 201.75 315.07 245.33 307.66 264.8C306.98 266.71 305.69 268.35 303.99 269.46C303.01 270.22 301.65 270.24 300.65 269.51C300.49 269.4 300.36 269.25 300.26 269.08C292.81 258.22 276.63 233.16 276.58 219.89C277.59 200.79 287.67 183.32 303.72 172.91ZM292.59 221.7C292.78 221.86 293.01 221.97 293.24 222.03C293.64 222.25 294.07 222.42 294.51 222.53L294.56 222.53L295.22 222.69C295.71 222.75 296.2 222.79 296.7 222.8C299.22 222.7 301.68 221.95 303.83 220.61C313.14 214.54 319 204.4 319.62 193.3C319.62 192.64 319.56 191.99 319.51 191.38C319.45 191 319.4 190.62 319.34 190.29C319.25 189.7 319.12 189.11 318.96 188.53C318.8 187.98 318.58 187.45 318.3 186.94C318.21 186.69 318.08 186.45 317.92 186.23C317.81 185.94 317.64 185.68 317.42 185.46C317.31 185.21 317.14 184.98 316.93 184.8C316.61 184.42 316.24 184.07 315.84 183.76C315.4 183.37 314.9 183.05 314.35 182.83C313.11 182.28 311.76 182.02 310.41 182.06C308.03 182.26 305.74 183.01 303.72 184.25C294.4 190.31 288.55 200.46 287.98 211.56C287.9 213.89 288.39 216.2 289.41 218.31C290.09 219.74 291.2 220.93 292.59 221.7Z" />
					<path id="Path 87" class="shp34" d="M285.49 145.24C281.84 139.84 278.53 134.22 275.56 128.42L280.45 125.94C283.31 131.54 286.52 136.96 290.04 142.18L285.49 145.24Z" />
					<path id="Path 88" class="shp35" d="M267.48 71.95L263.97 71.45C263.75 73.1 263.53 74.74 263.42 76.39L263.53 76.39L268.91 76.77C269.01 75.24 269.18 73.7 269.4 72.22L267.48 71.95ZM273.24 108.68L269.29 109.94L268.03 110.38C268.41 111.59 268.85 112.79 269.29 114.05C270.49 117.34 271.87 120.69 273.4 124.03L278.39 121.73C276.41 117.49 274.69 113.13 273.24 108.68L273.24 108.68Z" />
					<path id="Path 89" class="shp36" d="M343.75 11.96C342.1 11.96 340.46 12.02 338.87 12.07L339.09 17.56C340.68 17.5 342.21 17.44 343.8 17.44L343.75 11.96ZM358.39 12.73L357.78 18.21C368.67 19.46 379.39 21.89 389.75 25.45L391.5 20.24C380.77 16.56 369.66 14.04 358.39 12.73L358.39 12.73ZM305.37 19.36C300.79 21.28 296.42 23.65 292.32 26.44L295.39 30.99C299.21 28.42 303.27 26.22 307.51 24.41L305.37 19.36ZM396.11 21.89L394.19 27.04C398.52 28.63 402.91 30.44 407.24 32.41L409.54 27.42C405.05 25.4 400.55 23.53 396.11 21.89L396.11 21.89ZM439.1 43.87L436.08 48.48C437.4 49.36 438.71 50.23 440.03 51.11L443.1 46.56C441.78 45.68 440.47 44.75 439.1 43.87L439.1 43.87ZM288.32 29.34C279.01 36.49 271.88 46.07 267.7 57.03L272.8 58.95C276.66 48.96 283.18 40.22 291.66 33.67L288.32 29.34ZM454.83 55.06L451.54 59.44C460.3 66.18 468.66 73.41 476.6 81.1L480.38 77.15C472.29 69.31 463.76 61.93 454.83 55.06L454.83 55.06ZM483.84 80.5L480 84.39C483.29 87.68 486.58 91.08 489.87 94.59L493.93 90.86C490.58 87.3 487.18 83.84 483.84 80.5L483.84 80.5ZM515.75 116.52L511.42 119.92C512.35 121.18 513.33 122.39 514.27 123.65L518.65 120.36C517.66 119.1 516.68 117.78 515.75 116.52Z" />
					<path id="Path 90" class="shp37" d="M533.58 151.09C530.05 145.68 526.44 140.37 522.85 135.31L527.32 132.14C530.95 137.25 534.61 142.62 538.18 148.1L533.58 151.09Z" />
					<path id="Path 91" class="shp38" d="M529.88 177.03L572.05 159.23L580.83 225.03L529.88 177.03Z" />
					<path id="Path 92" class="shp39" d="M580.83 225.03L541.9 164.68L557.72 165.28L580.83 225.03Z" />
					<path id="Path 93" class="shp40" d="M935.32 510.28C934.28 508.27 936.13 503.03 936.13 503.03C937.42 501.37 934.62 500.01 933.28 502.41L929.86 511.6C928.78 512.87 927.94 514.33 927.38 515.9C927.82 518.33 928.75 520.66 930.11 522.72L929.18 528.83L937.17 530.06L938.1 523.96C940.03 521.72 941.08 518.86 941.05 515.91C939.43 513.12 936.27 512.15 935.32 510.28Z" />
					<path id="Path 94" class="shp41" d="M878.49 604.37C878.49 604.37 900.6 587.88 913.34 580.22L927.79 527.59C931.4 526.85 935.16 527.43 938.37 529.23C933.63 557.99 931.82 585.64 925.1 593.34C913.6 604.53 906.69 619.19 892.02 618.78L878.49 604.37Z" />
					<path id="Path 95" class="shp42" d="M965.74 561.63L943.46 593.18L966.93 606.28L996.41 579.49L965.74 561.63Z" />
					<path id="Path 96" class="shp40" d="M904.49 859.33L901.56 870.14L913.19 873.44L914.38 862.92L904.49 859.33Z" />
					<path id="Path 97" class="shp43" d="M902.84 865.43C900.79 866.39 898.92 873.22 901.32 874.22C904.14 875.4 901.56 881.4 905.1 880.94C906.19 880.57 904.51 874.96 907.84 874.37C917.11 872.74 919.02 877.77 928.04 870.39C930.75 868.17 919.8 865.23 914.08 865.59C914.08 865.59 914.6 868.77 910.87 868.55C907.15 868.33 905.69 864.84 902.84 865.43Z" />
					<path id="Path 98" class="shp40" d="M904.34 859.85C904.38 863.24 909.4 863.74 914.38 862.93L929.44 794.31C931.59 769.97 928.36 745.46 919.95 722.52L885.71 704.86C882.01 739.47 902.3 760.83 905.39 787.1L904.34 859.85Z" />
					<path id="Path 99" class="shp44" d="M911.55 801.22C911.49 804.2 911.11 807.16 910.43 810.05C909.62 813.72 908.88 817.33 908.13 820.93C907.31 825.35 906.17 829.69 904.71 833.93L905.39 787.1C904.26 779.12 902.06 771.32 898.86 763.91C899.21 763.66 899.63 763.57 900.05 763.66C902.72 763.97 904.96 771.74 906.2 771.74C908.04 777.94 909.19 784.32 909.62 790.77C910.54 794.2 911.19 797.69 911.55 801.22Z" />
					<path id="Path 100" class="shp40" d="M866.41 837.3L861.83 847.53L872.8 852.6L875.63 842.4L866.41 837.3Z" />
					<path id="Path 101" class="shp43" d="M863.83 843.07C861.65 843.7 858.74 850.15 860.96 851.52C863.56 853.12 860.08 858.64 863.65 858.75C864.78 858.54 864 852.74 867.38 852.68C876.79 852.51 877.88 857.78 887.95 851.89C890.97 850.13 880.61 845.51 874.92 844.98C874.92 844.98 874.93 848.2 871.28 847.41C867.64 846.61 866.74 842.93 863.83 843.07Z" />
					<path id="Path 102" class="shp40" d="M866.19 837.79C865.7 841.15 870.58 842.42 875.63 842.4L901.2 776.97C907.12 753.26 907.74 728.54 903.02 704.57L871.95 681.79C862.9 715.4 879.61 739.67 878.57 766.1L866.19 837.79Z" />
					<path id="Path 103" class="shp44" d="M901.16 776.97L883.5 822.12C883.94 820.07 884.69 817.77 884.87 816.09C885.08 812.85 885.47 809.63 886.05 806.45C888.08 799.82 890.51 793.32 893.33 786.98C898.49 771.68 895.88 755.08 895.01 738.97C894.57 735.13 895 731.25 896.25 727.59C897.57 723.85 901.05 721.3 905.02 721.19L905.08 721.19C907.38 739.86 906.05 758.8 901.16 776.97L901.16 776.97Z" />
					<path id="Path 104" class="shp45" d="M872.78 752.52C864.68 773.74 909.67 777.15 920.45 774.87C931.03 772.62 934.88 770.27 934.36 760.68C933.77 749.88 926.56 711.53 926.56 711.53C926.56 711.53 866 686.58 864.81 704.58C862.88 733.82 872.74 737.77 872.78 752.52Z" />
					<path id="Path 105" class="shp46" d="M862.88 702.97C864.62 717.39 928.47 720.92 928.47 708.1C914.8 661.94 938.32 663.37 928.6 621.75C918.58 605.54 899.41 597.44 880.8 601.55C856.66 618 879.71 652.33 862.88 702.97Z" />
					<path id="Path 106" class="shp40" d="M895.7 600.51C897.66 594.96 898.91 589.17 899.4 583.29L912.69 590.5C910.47 595.25 909.73 600.56 910.56 605.74C905.7 605.68 897.56 604.79 895.7 600.51Z" />
					<path id="Path 107" class="shp44" d="M912.7 590.52C911.3 593.36 910.5 596.47 910.35 599.64C909.42 599.74 908.47 599.74 907.54 599.64C905.91 599.34 904.24 599.78 902.97 600.85C902.54 601.53 902.02 602.16 901.43 602.73C900.66 603.14 899.82 603.42 898.95 603.53C897.55 602.93 896.41 601.87 895.73 600.51C897.68 594.94 898.92 589.15 899.42 583.27L912.7 590.52Z" />
					<path id="Path 108" class="shp40" d="M916.85 572.54C919.42 579.47 918.79 587.18 915.14 593.61C910.25 597.2 903.7 597.56 898.44 594.53C896.3 593.61 894.42 592.18 892.96 590.37L885.52 565.68L885.82 564.92L912.26 561.93C914.31 565.21 915.86 568.79 916.85 572.54L916.85 572.54Z" />
					<path id="Path 109" class="shp44" d="M920.54 577.3C918.91 577.25 916.87 577.25 915.31 577.25C913.96 577.23 912.91 575.65 911.66 575.95C907.98 576.86 905.05 579.61 903.9 583.22C903.37 584.84 903.27 586.61 902.67 588.19C901.84 590.35 900.21 592.12 898.11 593.12C897.98 593.14 897.92 593.22 897.8 593.3C895.9 591.95 894.36 590.16 893.31 588.08L891 562.82C892.5 563.9 892 561.8 892.33 561.69L918.17 564.33C919.51 568.53 920.31 572.89 920.54 577.3L920.54 577.3Z" />
					<path id="Path 110" class="shp40" d="M995.75 575.22C994.68 572.56 983.38 570.76 984.04 572.28C984.04 572.28 987.48 574.82 987.38 576.51C985.66 581.93 982.9 574.64 981.99 575.92C980.77 577.09 982.82 582.61 983.41 585.24L980.77 590.58L987.76 594.04L990.4 588.71C992.75 586.68 994.82 585.26 995.46 582.18C996.99 580.14 997.1 577.37 995.75 575.22Z" />
					<path id="Path 111" class="shp47" d="M921.27 612.95C921.27 612.95 939.01 624.49 952.33 630.99L979.86 589.03C983.39 589.4 986.67 591.03 989.1 593.63C976.34 618.67 966.6 643.55 958.18 648.66C944.34 655.58 922.88 644.41 909.52 639.75L921.27 612.95Z" />
					<path id="Path 112" class="shp48" d="M911.96 578.95C920.88 579.18 919.42 573.67 920.45 568.28C921.48 562.89 918.19 553.15 910.48 554.26C903.87 555.26 897.42 557.13 891.3 559.83C883.41 562.85 883.11 568.89 880.67 576.03C878.23 583.17 883.33 584.86 886.3 588.47C890.35 593.42 877.95 604.05 894.17 605.91C901.46 606.75 916.29 591.51 912.29 589.36C908.29 587.2 904.74 578.76 911.96 578.95Z" />
					<path id="Path 113" class="shp44" d="M961.18 646.13C960.33 647.13 959.32 648 958.19 648.68C949.18 651.79 939.33 651.41 930.58 647.62C928.4 666.03 918.45 674.3 928.47 708.13C928.47 714.29 913.61 716.65 898.06 715.84C902.59 714.35 906.95 712.36 911.05 709.93C913.01 708.94 914.7 707.49 915.97 705.7C918.58 701.6 916.71 696.31 915.78 691.53C914.48 684.96 915.02 678.16 917.33 671.87C918.77 668.14 920.82 664.6 922.12 660.8C923.85 655.7 924.19 650.23 923.12 644.95C922.48 641.57 921.26 638.33 919.51 635.37C930.84 644.88 945.8 648.88 960.37 646.31C960.62 646.25 960.93 646.18 961.18 646.13Z" />
					<path id="Path 114" class="shp49" d="M980.77 574.25L971.37 568.37L969.27 571.73L979.11 577.61L980.77 574.25Z" />
					<path id="Path 115" class="shp50" d="M977.13 580.27L963.39 572.57L960.32 576.97L974.7 584.68L977.13 580.27Z" />
					<path id="Path 116" class="shp51" d="M972.84 587.77L959.1 580.06L956.03 584.46L970.41 592.17L972.84 587.77Z" />
					<path id="Path 117" class="shp52" d="M968.55 595.25L954.81 587.55L951.74 591.95L966.12 599.66L968.55 595.25Z" />
					<path id="Path 118" class="shp40" d="M459.41 381.77C459.93 379.67 457.06 375.23 457.06 375.23C455.5 373.97 457.8 372.1 459.56 374.03L464.75 381.79C466.03 382.74 467.12 383.9 467.99 385.23C468.12 387.58 467.77 389.94 466.95 392.15L469.15 397.6L462.02 400.5L459.82 395.05C457.54 393.4 455.95 390.98 455.32 388.24C456.21 385.29 458.93 383.7 459.41 381.77Z" />
					<path id="Path 119" class="shp53" d="M532.68 456.5C532.68 456.5 508.58 446.06 495.1 441.76L470.17 396.15C466.67 396.25 463.31 397.62 460.72 399.99C471.42 425.6 479.16 450.83 487.07 456.49C500.18 464.33 509.8 476.4 523.3 472.81L532.68 456.5Z" />
					<path id="Path 120" class="shp40" d="M543 685.43C543.46 689.35 544.94 693.08 547.28 696.25L533.2 700.11C532.73 695.89 535.34 689.22 533.2 688.09L543 685.43Z" />
					<path id="Path 121" class="shp43" d="M545.41 691.53C547.64 692.29 550.96 698.88 549.29 701.01C547.37 703.15 544.65 704.38 541.78 704.41C533.66 703.32 525.75 701.01 518.33 697.54C515.53 694.78 527.93 691.57 533.82 693C533.82 693 534.8 695.21 538.62 694.55C542.43 693.9 542.4 691.26 545.41 691.53Z" />
					<path id="Path 122" class="shp40" d="M505.8 704.41C506.26 708.33 507.74 712.06 510.08 715.24L496 719.09C495.53 714.87 498.14 708.21 496 707.08L505.8 704.41Z" />
					<path id="Path 123" class="shp43" d="M508.21 710.52C510.44 711.28 513.75 717.87 512.08 720C510.17 722.14 507.45 723.37 504.57 723.4C496.46 722.31 488.55 720 481.12 716.53C478.33 713.78 490.73 710.56 496.62 711.99C496.62 711.99 497.59 714.2 501.41 713.54C505.23 712.89 505.19 710.25 508.21 710.52Z" />
					<path id="Path 124" class="shp45" d="M545.3 686.85C545.64 690.18 537.83 690.54 532.86 690.29L511.44 624.62C506.63 600.97 507.1 576.56 512.8 553.11L544.45 532C551.91 565.54 537.28 588.43 534.24 614.88L545.3 686.85Z" />
					<path id="Path 125" class="shp44" d="M511.43 624.61L526.8 671.72C527.46 668.73 527.55 665.65 527.07 662.64C526.21 655.62 525.28 648.66 524.42 641.64C524.05 638.27 523.47 634.93 522.7 631.63C517.53 622.42 516.19 611.54 518.98 601.34C524.77 577.72 515.95 572.94 514.1 563C513.43 577.11 508.72 614.75 511.43 624.61Z" />
					<path id="Path 126" class="shp45" d="M508.12 706.36C508.09 709.7 500.53 710.21 495.61 709.41L481.69 641.75C479.57 617.71 482.77 593.5 491.07 570.85L524.88 553.41C528.54 587.58 508.49 608.69 505.44 634.62L508.12 706.36Z" />
					<path id="Path 127" class="shp44" d="M502.29 663.17C503.61 668.94 505.74 674.57 506.66 680.4C506.86 681.85 507 683.25 507.19 684.7L505.47 634.62C506.31 628.15 507.96 621.8 510.37 615.74C510.24 615.54 513.67 607.79 513.47 607.59C508.1 616.45 504.25 626.14 502.09 636.27C500.24 645.15 500.3 654.32 502.29 663.17Z" />
					<path id="Path 128" class="shp54" d="M549.24 555.56C549.24 572.96 488.34 582.3 488.34 569.63C497.04 539.43 485.1 509.81 489.91 475.51C491.79 462.11 517.72 447.91 533.13 454.85C556.95 478.4 536.84 496.98 549.24 555.56Z" />
					<path id="Path 129" class="shp40" d="M518.42 453.83C516.48 448.34 515.25 442.62 514.77 436.82L501.63 443.94C503.83 448.63 504.56 453.88 503.74 458.99C508.54 458.93 516.58 458.05 518.42 453.83Z" />
					<path id="Path 130" class="shp44" d="M501.63 443.95C503.01 446.77 503.8 449.83 503.95 452.96C504.87 453.06 505.81 453.06 506.73 452.96C508.33 452.66 509.99 453.1 511.23 454.16C511.67 454.83 512.18 455.45 512.76 456.01C513.52 456.42 514.35 456.69 515.21 456.81C516.59 456.22 517.71 455.16 518.39 453.82C516.47 448.32 515.24 442.6 514.75 436.8L501.63 443.95Z" />
					<path id="Path 131" class="shp40" d="M494 429.29C492.96 436.52 495.17 443.83 500.02 449.28C505.49 451.73 511.89 450.72 516.34 446.71C518.22 445.37 519.74 443.6 520.77 441.55L522.58 416.64L521.45 415.82L496.23 418.09C494.94 421.69 494.18 425.47 494 429.29Z" />
					<path id="Path 132" class="shp44" d="M494 429.29C495.61 429.24 497.22 429.25 498.75 429.26C500.06 429.2 501.37 429.31 502.65 429.58C506.28 430.47 509.19 433.18 510.32 436.75C510.84 438.35 510.94 440.1 511.53 441.65C512.36 443.79 513.96 445.54 516.03 446.53C516.16 446.55 516.22 446.62 516.34 446.71C518.22 445.37 519.74 443.6 520.77 441.55L522.5 417.17C522.26 417 522.64 415.85 522.32 415.74L496.23 418.09C494.94 421.69 494.18 425.47 494 429.29Z" />
					<path id="Path 133" class="shp48" d="M522.5 444.3C520.01 447.83 516.07 450.05 511.76 450.36C507.76 448.03 504.37 446.31 504.85 440.96C505.17 438.98 506.24 437.2 507.83 435.97C508.9 433.63 507.58 432.57 505.88 431.72C504.14 433 502.79 434.75 501.98 436.75L501.03 435.85L504.61 427.84C500.56 428.21 496.5 427.49 492.83 425.74C489.88 422.25 489.5 413.04 494.22 413.04C507.99 410.54 517.58 401.72 521.54 414.08C526.83 418.67 528.95 425.92 526.97 432.63C523.7 438.33 527.11 443 522.5 444.3Z" />
					<path id="Path 134" class="shp40" d="M450.86 554.63C450.86 554.63 446.66 549.25 447.88 547.56C448.56 546.43 451.31 547.66 453.27 546.57C456.93 544.73 451.39 542.83 452.1 541.96C454.14 539.9 458.46 542.09 461.1 542.34L466 539.1L470.27 545.51L465.37 548.76C463.68 551.31 462.54 553.52 459.6 554.52C456.46 555.35 452.11 556.45 450.86 554.63Z" />
					<path id="Path 135" class="shp55" d="M491.54 474.8C491.31 485.96 493.9 496.99 499.08 506.87L464.38 538.39C465.18 541.81 467.19 544.82 470.03 546.88C492.97 531.26 514.83 518.62 518.79 509.74C523.85 495.32 514.37 476.78 504.23 466.87L491.54 474.8Z" />
					<path id="Path 136" class="shp56" d="M519.19 508.02C519.56 512.93 518.3 517.82 515.59 521.94C512.54 525.72 509.08 529.15 505.27 532.17C498.15 538.76 494.48 548.27 495.32 557.94C496.42 562.42 497.15 566.98 497.5 571.58C497.47 572.51 497.35 573.43 497.12 574.33C491.82 574.14 488.31 572.62 488.31 569.59C491.41 557.57 492.4 545.1 491.25 532.74C490.59 533.21 489.92 533.59 489.16 534.07C489.23 533.92 489.33 533.79 489.45 533.69C489.92 533.06 490.5 532.51 491.16 532.08C492.13 531.36 493.14 530.7 494.18 530.09C508.18 520.71 515.52 504.12 513.04 487.46C515.82 492.37 517.74 497.72 518.72 503.28C519.02 504.84 519.18 506.43 519.19 508.02L519.19 508.02Z" />
				</g>
			</g>
		</g>
	</g>
</svg>