<svg xmlns="http://www.w3.org/2000/svg" viewBox="0 0 22 22" width="22" height="22">
	<style>
		tspan { white-space:pre }
		.shp0 { fill: #ffffff } 
	</style>
	<g id="Web 1920 – 1">
		<g id="Group 381">
			<path id="Path 337" fill-rule="evenodd" class="shp0" d="M20.5 10.75C20.5 13.4 20.49 13.73 20.44 14.77C20.42 15.58 20.27 16.38 19.99 17.14C19.48 18.45 18.45 19.48 17.14 19.99C16.38 20.27 15.58 20.43 14.77 20.44C13.73 20.49 13.4 20.5 10.75 20.5C8.1 20.5 7.77 20.49 6.73 20.44C5.92 20.43 5.12 20.27 4.36 19.99C3.71 19.74 3.12 19.36 2.64 18.86C2.14 18.38 1.76 17.79 1.51 17.14C1.23 16.38 1.07 15.58 1.06 14.77C1.01 13.73 1 13.4 1 10.75C1 8.1 1.01 7.77 1.06 6.73C1.07 5.92 1.23 5.12 1.51 4.36C1.76 3.71 2.14 3.12 2.63 2.64C3.12 2.14 3.71 1.76 4.36 1.51C5.12 1.23 5.92 1.07 6.73 1.06C7.77 1.01 8.1 1 10.75 1C13.4 1 13.73 1.01 14.77 1.06C15.58 1.07 16.38 1.23 17.14 1.51C17.79 1.76 18.37 2.14 18.86 2.64C19.36 3.12 19.74 3.71 19.99 4.36C20.27 5.12 20.43 5.92 20.44 6.73C20.49 7.77 20.5 8.1 20.5 10.75ZM18.74 10.75C18.74 8.15 18.73 7.84 18.69 6.81C18.68 6.19 18.57 5.58 18.35 5C18.19 4.58 17.94 4.19 17.62 3.88C17.31 3.55 16.92 3.31 16.5 3.15C15.92 2.93 15.31 2.82 14.69 2.81C13.66 2.77 13.35 2.76 10.75 2.76C8.15 2.76 7.84 2.77 6.81 2.81C6.19 2.82 5.58 2.93 5 3.15C4.58 3.31 4.19 3.55 3.88 3.88C3.55 4.19 3.3 4.58 3.15 5C2.93 5.58 2.82 6.19 2.81 6.81C2.77 7.84 2.76 8.15 2.76 10.75C2.76 13.35 2.77 13.66 2.81 14.69C2.82 15.31 2.93 15.92 3.15 16.5C3.3 16.92 3.55 17.31 3.88 17.62C4.19 17.95 4.58 18.19 5 18.35C5.58 18.57 6.19 18.68 6.81 18.69C7.84 18.73 8.15 18.74 10.75 18.74C13.35 18.74 13.66 18.73 14.69 18.69C15.31 18.68 15.92 18.57 16.5 18.35C17.35 18.02 18.02 17.35 18.35 16.5C18.57 15.92 18.68 15.31 18.69 14.69C18.73 13.66 18.74 13.35 18.74 10.75ZM15.76 10.75C15.76 13.51 13.52 15.76 10.75 15.76C7.98 15.76 5.74 13.51 5.74 10.75C5.74 7.98 7.98 5.74 10.75 5.74C13.52 5.74 15.76 7.98 15.76 10.75ZM14 10.75C14 8.95 12.54 7.5 10.75 7.5C8.95 7.5 7.5 8.95 7.5 10.75C7.5 12.54 8.95 14 10.75 14C12.54 14 14 12.54 14 10.75ZM17.12 5.55C17.12 6.19 16.6 6.72 15.95 6.72C15.31 6.72 14.78 6.19 14.78 5.55C14.78 4.9 15.31 4.38 15.95 4.38C16.6 4.38 17.12 4.9 17.12 5.55Z" />
		</g>
	</g>
</svg>