<svg xmlns="http://www.w3.org/2000/svg" viewBox="0 0 14 14" width="14" height="14">
	<style>
		tspan { white-space:pre }
		.shp0 { fill: none } 
		.shp1 { fill: #ffffff } 
	</style>
	<g id="Web 1920 – 7">
		<g id="Group 339">
			<g id="remove_circle-24px">
				<g id="Group 336">
					<path id="Rectangle 148" class="shp0" d="M1 1L13 1L13 13L1 13L1 1Z" />
				</g>
				<g id="Group 338">
					<g id="Group 337">
						<path id="Path 328" fill-rule="evenodd" class="shp1" d="M12 7C12 9.76 9.76 12 7 12C4.24 12 2 9.76 2 7C2 4.24 4.24 2 7 2C9.76 2 12 4.24 12 7ZM9.5 7C9.5 6.72 9.27 6.5 9 6.5L5 6.5C4.72 6.5 4.5 6.72 4.5 7C4.5 7.27 4.72 7.5 5 7.5L9 7.5C9.27 7.5 9.5 7.27 9.5 7Z" />
					</g>
				</g>
			</g>
		</g>
	</g>
</svg>