<svg xmlns="http://www.w3.org/2000/svg" viewBox="0 0 24 20" width="24" height="20">
	<style>
		tspan { white-space:pre }
		.shp0 { fill: #ffffff } 
	</style>
	<g id="Web 1920 – 1">
		<g id="Group 381">
			<path id="Path 336" class="shp0" d="M7.49 19.5C4.93 19.5 2.59 18.84 0.34 17.49C0.06 17.33 -0.07 16.98 0.04 16.67C0.15 16.36 0.46 16.17 0.78 16.21C2.36 16.4 4.05 16.07 5.36 15.36C3.86 14.79 2.56 13.54 1.87 11.93C1.77 11.68 1.81 11.39 2 11.18C2.08 11.1 2.18 11.03 2.29 11C1.31 10.07 0.45 8.69 0.45 6.87C0.45 6.6 0.61 6.35 0.86 6.24C0.99 6.18 1.13 6.16 1.26 6.18C0.66 4.81 0.49 3.04 1.45 1.31C1.56 1.1 1.78 0.97 2.01 0.95C2.25 0.93 2.47 1.04 2.61 1.23C3.5 2.41 5.97 5.1 10.35 5.64C10.28 4.25 10.57 2.03 12.35 0.92C13.38 0.29 14.26 0 15.23 0C16.48 0 17.51 0.42 18.54 1.35C19.29 1.15 20.38 0.64 20.61 0.47C20.85 0.3 21.17 0.29 21.41 0.45C21.66 0.62 21.77 0.92 21.7 1.2C21.62 1.54 21.47 1.89 21.27 2.24C21.54 2.1 21.88 2.16 22.09 2.38C22.31 2.6 22.35 2.95 22.19 3.22C21.64 4.14 20.77 5 20.15 5.5C20.37 8.82 19.01 12.53 16.54 15.28C14.1 18 10.89 19.5 7.51 19.5C7.5 19.5 7.5 19.5 7.49 19.5L7.49 19.5Z" />
		</g>
	</g>
</svg>